<?xml version="1.0" standalone="no"?>
<!DOCTYPE svg PUBLIC "-//W3C//DTD SVG 1.1//EN" "http://www.w3.org/Graphics/SVG/1.1/DTD/svg11.dtd" >
<svg xmlns="http://www.w3.org/2000/svg">
<metadata></metadata>
<defs>
<font id="harabara_maisharabara_mais" horiz-adv-x="416" >
<font-face units-per-em="2048" ascent="1636" descent="-412" />
<missing-glyph horiz-adv-x="960" />
<glyph horiz-adv-x="0" />
<glyph horiz-adv-x="682" />
<glyph unicode=" "  horiz-adv-x="960" />
<glyph unicode="&#x09;" horiz-adv-x="960" />
<glyph unicode="&#xa0;" horiz-adv-x="960" />
<glyph unicode="!" d="M112 0v120q0 72 68 72h120v-192h-188zM112 1292q-7 100 96 100h92l-28 -1124h-132z" />
<glyph unicode="&#x22;" horiz-adv-x="732" d="M112 1224v104q0 64 60 64h104v-168l-80 -328zM432 1224v104q0 64 60 64h104v-168l-80 -328z" />
<glyph unicode="#" horiz-adv-x="1632" d="M72 376l24 76q12 35 48 64q35 28 72 28h256l96 288h-348l28 72q12 37 46 66q35 30 74 30h256l132 392h48q80 0 92 -64q0 -46 -8 -72l-88 -256h284l132 392h52q84 0 92 -68q0 -39 -12 -68l-84 -256h292l-56 -168h-292l-96 -288h292l-56 -168h-296l-128 -376h-176l128 376 h-284l-128 -376h-176l128 376h-344zM648 544h284l96 288h-284z" />
<glyph unicode="$" horiz-adv-x="1184" d="M44 460h184q4 -148 100 -236q68 -68 192 -84v500q-105 24 -200 60q-220 88 -228 312q0 169 136 284q113 89 292 108v176h12q120 0 120 -116v-60q179 -12 300 -116q125 -108 132 -304h-76q-72 -8 -96 48q-80 216 -260 216v-464q62 -17 194 -54q106 -30 166 -78 q116 -96 116 -256q0 -192 -144 -304q-131 -100 -332 -112v-176h-132v180q-205 17 -324 116q-145 125 -152 360zM272 1032q0 -100 62 -136t186 -72v428q-96 -12 -164 -56q-84 -60 -84 -164zM652 136q126 5 192 56q96 64 96 180q0 96 -72 144q-73 49 -216 92v-472z" />
<glyph unicode="%" horiz-adv-x="1368" d="M48 1048q0 108 78 186t190 78q108 0 186 -78t78 -186q0 -112 -78 -188q-77 -76 -186 -76q-113 0 -190 76q-78 76 -78 188zM144 1048q0 -72 50 -122t122 -50q68 0 118 50t50 122t-50 122t-118 50q-72 0 -122 -50t-50 -122zM184 -20l792 1368q24 35 50 40q23 4 66 4h80 l-820 -1412h-168zM776 320q0 108 78 188t186 80t186 -80t78 -188t-78 -186t-186 -78t-186 78t-78 186zM872 320q0 -72 48 -120t120 -48t122 48t50 120t-50 122t-122 50t-120 -50t-48 -122z" />
<glyph unicode="&#x26;" horiz-adv-x="1336" d="M96 316q-48 301 280 476l44 24l-64 76q-108 127 -100 248q17 257 332 276q296 0 308 -264q0 -204 -256 -352l296 -372q64 120 96 260h72q72 0 60 -64q-43 -166 -128 -324l240 -300h-204l-132 164q-160 -192 -432 -184q-364 12 -412 336zM300 252q108 -172 364 -108 q127 31 180 136l-344 436q-313 -212 -200 -464zM428 1148q0 -109 136 -248l68 44q112 72 108 208q0 148 -156 148t-156 -152z" />
<glyph unicode="'" horiz-adv-x="392" d="M112 1224v104q0 64 60 64h104v-168l-80 -328z" />
<glyph unicode="(" horiz-adv-x="528" d="M72 628q0 207 80 402q79 193 188 362q55 88 164 100q-116 -205 -186 -418t-70 -446q0 -237 70 -462q72 -230 182 -426h-92q-132 180 -234 426t-102 462z" />
<glyph unicode=")" horiz-adv-x="528" d="M72 -260q109 194 182 412q70 210 70 448q0 234 -70 460q-72 232 -182 432h96q122 -176 230 -432q106 -251 106 -460q0 -216 -84 -408q-82 -188 -188 -352q-61 -93 -160 -100z" />
<glyph unicode="*" horiz-adv-x="692" d="M100 1196l8 32q4 28 40 24l160 -48v168q0 32 36 32h28v-200l164 48q32 8 40 -24l8 -32l-192 -52l96 -136q16 -24 -8 -48l-24 -16l-116 160l-104 -156q-25 -20 -48 -4l-24 16l124 184z" />
<glyph unicode="+" horiz-adv-x="1056" d="M92 476v64q0 56 56 56h308v368h64q56 0 56 -56v-312h368v-120h-368v-364h-120v364h-364z" />
<glyph unicode="," d="M112 0v120q0 72 72 72h116v-192q0 -92 -52 -144t-136 -64v24q4 36 44 52q56 24 56 108q0 24 -28 24h-72z" />
<glyph unicode="-" horiz-adv-x="896" d="M152 476v64q0 56 56 56h488v-120h-544z" />
<glyph unicode="." d="M112 0v120q0 72 68 72h120v-192h-188z" />
<glyph unicode="/" horiz-adv-x="588" d="M-24 -176l492 1708h92l-492 -1688q-8 -20 -28 -20h-64z" />
<glyph unicode="0" horiz-adv-x="1264" d="M112 696q0 252 90 486t426 234t426 -228t90 -484t-90 -490t-426 -234t-426 232t-90 484zM308 696q0 -535 320 -540q324 4 324 540t-324 540q-320 -5 -320 -540z" />
<glyph unicode="1" horiz-adv-x="756" d="M112 1012v140q124 0 216 74t116 166h56q96 0 96 -96v-1296h-192v1012h-292z" />
<glyph unicode="2" horiz-adv-x="1212" d="M112 0q-8 140 88 288q88 144 384 372q151 110 222 178q74 71 78 158q2 130 -65 195t-203 65q-140 0 -212 -86q-72 -85 -64 -218h-112q-84 0 -84 72q7 196 146 294t342 98q201 0 326 -106q126 -106 126 -310q0 -164 -136 -288q-150 -138 -352 -290q-200 -150 -212 -262 h696v-160h-968z" />
<glyph unicode="3" horiz-adv-x="1248" d="M112 436h188q0 -280 304 -284q320 0 320 248q0 136 -112 196q-110 56 -252 52v152q312 0 320 240q8 216 -264 216t-256 -276h-88q-112 0 -104 104q36 324 452 332q441 -5 448 -364q0 -129 -52 -208q-53 -80 -136 -104q244 -60 244 -332q0 -228 -136 -328 q-139 -100 -396 -100q-264 0 -372 128t-108 328z" />
<glyph unicode="4" horiz-adv-x="1252" d="M112 344v212l528 836h192q112 0 112 -116v-776h204v-156h-204v-344h-196v344h-636zM284 500h464v736z" />
<glyph unicode="5" horiz-adv-x="1192" d="M112 392h192q24 -256 336 -256q292 31 292 328q0 296 -316 296q-180 0 -276 -128l-188 12l92 748h700q108 0 108 -112v-44h-636l-48 -412q101 104 268 104q464 0 488 -460q0 -456 -492 -488q-208 0 -350 100q-141 100 -170 312z" />
<glyph unicode="6" horiz-adv-x="1240" d="M112 652q0 752 552 764q296 0 408 -204q36 -60 48 -144h-112q-64 -4 -88 52q-67 136 -260 136q-348 0 -352 -484q124 156 356 156q204 0 334 -132q130 -131 130 -340q0 -228 -128 -348q-137 -128 -364 -128q-519 0 -524 672zM328 444q0 -299 308 -304q296 0 296 312 q0 304 -300 308q-304 -16 -304 -316z" />
<glyph unicode="7" horiz-adv-x="1248" d="M112 1236v156h892q76 0 100 -52q32 -68 -20 -132q-243 -306 -382 -564q-138 -256 -142 -644h-216q8 300 144 606q137 307 424 630h-800z" />
<glyph unicode="8" horiz-adv-x="1224" d="M104 408q8 252 224 332q-72 36 -124 106t-52 206q0 172 120 268t336 96t336 -96t120 -268q0 -125 -58 -202q-60 -80 -122 -110q220 -60 228 -332q8 -249 -140 -338q-148 -90 -364 -90q-221 0 -366 94t-138 334zM300 412q-2 -138 75 -207t233 -69t233 69t75 207 q-4 240 -308 240t-308 -240zM336 1044q0 -228 272 -240q272 0 270 234t-272 234t-270 -228z" />
<glyph unicode="9" horiz-adv-x="1240" d="M108 944q0 228 128 348q137 128 364 128q532 0 524 -684q-8 -752 -552 -752q-296 0 -408 204q-36 60 -48 144h112q64 4 88 -52q67 -136 260 -136q348 0 352 472q-124 -156 -356 -156q-204 0 -334 132q-130 131 -130 352zM304 948q0 -304 300 -320q304 16 304 328 q0 299 -308 304q-296 0 -296 -312z" />
<glyph unicode=":" d="M112 120v120q0 72 68 72h120v-192h-188zM112 600v116q0 72 68 72h120v-188h-188z" />
<glyph unicode=";" d="M112 0v120q0 72 72 72h116v-192q0 -92 -52 -144t-136 -64v24q4 36 44 52q56 24 56 108q0 24 -28 24h-72zM112 600v116q0 72 68 72h120v-188h-188z" />
<glyph unicode="&#x3c;" horiz-adv-x="1280" d="M68 568q0 100 128 156l1024 420v-108q0 -40 -44 -60l-864 -360q-40 -16 -40 -44t40 -44l908 -380v-148l-1028 420q-128 48 -124 148z" />
<glyph unicode="=" horiz-adv-x="1056" d="M96 320v60q0 60 56 60h792v-120h-848zM96 636v60q0 60 56 60h792v-120h-848z" />
<glyph unicode="&#x3e;" horiz-adv-x="1280" d="M72 0l1028 420q128 48 124 148q0 100 -128 156l-1024 420v-108q0 -40 44 -60l864 -360q40 -16 40 -44t-40 -44l-908 -380v-148z" />
<glyph unicode="?" horiz-adv-x="1096" d="M112 1068q36 348 444 348q424 0 424 -372q0 -127 -116 -252q-146 -158 -200 -218q-56 -62 -56 -178v-80h-188v88q0 163 152 320q55 55 138 146q78 86 78 174q-8 212 -232 220q-119 0 -190 -62q-70 -61 -70 -210h-104q-80 0 -80 76zM420 0v120q0 72 72 72h120v-192h-192z " />
<glyph unicode="@" horiz-adv-x="2032" d="M108 548q0 160 48 312q48 149 148 268q141 165 348 268q191 88 452 88q167 0 308 -44q146 -43 252 -124q124 -100 196 -232q68 -128 68 -280q0 -185 -64 -312q-173 -344 -496 -344q-105 0 -148 40q-52 31 -52 116v16q-54 -86 -128 -128q-77 -44 -168 -44q-156 0 -232 84 q-80 80 -80 248q0 225 136 388q136 160 336 160q68 0 134 -36q67 -36 98 -96l36 100q120 0 118 -66q-1 -65 -6 -94l-104 -416q-20 -80 24 -128q24 -24 76 -24q204 -7 328 288q48 108 48 232q0 252 -192 416q-179 160 -496 160q-145 0 -244 -28q-111 -36 -208 -84 q-191 -115 -292 -300q-108 -180 -108 -404q0 -165 64 -308q60 -128 192 -228q41 -24 106 -56q55 -27 126 -52q123 -40 284 -40q172 0 328 48q143 48 292 132q36 -52 8 -86q-25 -30 -32 -42q-105 -63 -236 -112q-177 -56 -348 -56q-188 0 -344 48q-149 43 -276 136 q-156 100 -228 264q-72 156 -72 352zM716 472q0 -100 48 -160q61 -56 140 -56q83 0 172 68q73 68 104 180l44 176q8 36 6 86t-62 106q-48 48 -128 48q-139 0 -228 -128q-96 -132 -96 -320z" />
<glyph unicode="A" horiz-adv-x="1480" d="M108 0l460 1320q24 72 108 72h204l492 -1392h-224l-116 324h-584l-112 -324h-228zM492 484h492l-244 720z" />
<glyph unicode="B" horiz-adv-x="1260" d="M112 0v1276q0 116 116 116h480q400 0 408 -320q0 -220 -200 -324q248 -80 248 -356q-8 -392 -464 -392h-12h-576zM300 156h400q132 0 200 66t68 178q0 243 -272 248h-396v-492zM300 804h392q233 0 240 220q0 212 -244 212h-388v-432z" />
<glyph unicode="C" horiz-adv-x="1420" d="M760 1416h16q252 0 392 -124q131 -119 160 -320h-96q-97 0 -140 100q-91 184 -340 184h-6q-221 0 -335 -138q-115 -140 -119 -422q7 -552 448 -564q296 8 392 296h196q-94 -448 -583 -448h-17q-634 0 -634 710q0 714 666 726z" />
<glyph unicode="D" horiz-adv-x="1352" d="M112 0v1276q0 116 116 116h408q122 0 244 -32q376 -124 376 -654t-408 -678q-99 -28 -212 -28h-524zM300 156h328q436 19 436 544q0 524 -400 536h-364v-1080z" />
<glyph unicode="E" horiz-adv-x="1140" d="M112 0v1276q0 116 120 116h816v-156h-748v-428h564v-52q0 -104 -116 -104h-448v-496h748v-156h-936z" />
<glyph unicode="F" horiz-adv-x="1140" d="M112 0v1276q0 116 120 116h816v-156h-748v-428h564v-52q0 -104 -116 -104h-448v-652h-188z" />
<glyph unicode="G" horiz-adv-x="1448" d="M96 692q0 712 664 724h16q251 0 392 -124q131 -119 160 -320h-96q-97 0 -140 100q-91 184 -340 184q-455 0 -460 -560q5 -557 448 -564h13q167 0 267 100q120 108 128 344h-292q-116 0 -116 112v44h596v-732h-56q-92 0 -108 84v104q-132 -208 -444 -208q-632 0 -632 712z " />
<glyph unicode="H" horiz-adv-x="1316" d="M112 0v1276v13q0 48 26 74q30 29 94 29h68v-584h724v584h192v-1392h-192v652h-724v-652h-188z" />
<glyph unicode="I" d="M112 0v1276q0 116 120 116h68v-1392h-188z" />
<glyph unicode="J" horiz-adv-x="1032" d="M112 332v128h188v-132q0 -200 218 -202h4q214 0 214 198v956q0 112 116 112h76v-1060q0 -348 -408 -348t-408 348z" />
<glyph unicode="K" horiz-adv-x="1208" d="M112 0v1280q0 112 112 112h76v-632l632 632h236l-544 -544l600 -848h-240l-368 532q-70 105 -181 105q-11 0 -23 -1q-107 -12 -112 -120v-516h-188z" />
<glyph unicode="L" horiz-adv-x="1140" d="M112 0v1276q0 116 120 116h68v-1236h748v-156h-936z" />
<glyph unicode="M" horiz-adv-x="1512" d="M112 0v1276q0 116 120 116h184l344 -1124l340 1124h308v-1392h-192v1164l-368 -1164h-176l-372 1164v-1164h-188z" />
<glyph unicode="N" horiz-adv-x="1320" d="M112 0v1280q0 112 120 112h152l644 -1104v1104h188v-1392h-236l-680 1144v-1144h-188z" />
<glyph unicode="O" horiz-adv-x="1516" d="M96 696q4 716 660 720q660 0 660 -720q-12 -711 -660 -716h-7q-319 0 -482 177q-165 179 -171 539zM292 696q7 -555 464 -560h6q223 0 337 138q115 140 117 422q0 282 -116 422q-114 138 -341 138h-7q-455 0 -460 -560z" />
<glyph unicode="P" horiz-adv-x="1232" d="M112 0v1276q0 116 116 116h492q416 -5 416 -404t-416 -416h-420v-572h-188zM300 732h412q224 12 234 256v19q0 225 -234 229h-412v-504z" />
<glyph unicode="Q" horiz-adv-x="1516" d="M96 696q4 716 660 720q660 0 660 -720q-5 -333 -148 -508l42 -39l86 -81l-60 -64q-28 -28 -55 -28t-53 28l-76 72q-143 -95 -396 -100q-648 0 -660 720zM292 696q7 -556 464 -564q164 0 264 72l-200 192l52 60q30 30 60 30l52 -22l152 -144q80 128 80 376q0 282 -116 422 q-114 138 -341 138h-7q-455 0 -460 -560z" />
<glyph unicode="R" horiz-adv-x="1228" d="M112 0v1276q0 116 116 116h484h11q409 0 417 -372q-8 -264 -212 -368q124 -24 160 -128q33 -99 40 -328q7 -167 24 -196h-196q-24 36 -24 124q-4 324 -60 396q-31 52 -116 52h-456v-572h-188zM300 732l404 -4q253 0 253 264q0 12 -1 24q0 208 -248 220h-408v-504z" />
<glyph unicode="S" horiz-adv-x="1272" d="M88 460h180q5 -153 104 -236q100 -88 260 -88q171 0 256 56q104 77 104 180v13q0 106 -80 151q-96 60 -292 96q-318 55 -408 160q-80 85 -80 232q0 172 136 280q131 112 364 112q223 0 360 -116q128 -116 136 -304h-80q-76 0 -92 48q-72 220 -336 220q-308 0 -316 -224 v-8q0 -83 78 -142q82 -62 250 -98q143 -30 264 -64q272 -80 272 -332q0 -192 -144 -304q-143 -112 -388 -112q-268 0 -396 120q-140 120 -152 360z" />
<glyph unicode="T" horiz-adv-x="1264" d="M112 1236v40v13q0 48 26 74q30 29 94 29h920v-156h-424v-1236h-192v1236h-424z" />
<glyph unicode="U" horiz-adv-x="1296" d="M112 456v820q0 116 120 116h68v-896q0 -184 88 -274q83 -85 246 -84h18q352 10 352 358v896h188v-936q0 -472 -540 -472t-540 472z" />
<glyph unicode="V" horiz-adv-x="1392" d="M112 1392h200l388 -1140l344 1024q36 112 160 116h84l-492 -1392h-196z" />
<glyph unicode="W" horiz-adv-x="1936" d="M112 1392h212l272 -1140l304 1140h152l304 -1140l244 1024q24 111 164 116h80l-388 -1392h-196l-284 1032l-284 -1032h-196z" />
<glyph unicode="X" horiz-adv-x="1340" d="M112 0l444 692l-444 700h228l336 -568l292 492q47 76 131 76h9h136l-448 -696l448 -696h-232l-336 568l-332 -568h-232z" />
<glyph unicode="Y" horiz-adv-x="1344" d="M112 1392h232l332 -640l296 564q40 76 136 76h136l-472 -844v-548h-188v544z" />
<glyph unicode="Z" horiz-adv-x="1288" d="M112 0v176l840 1060h-708q-100 0 -100 96v60h1040v-176l-824 -1060h816v-156h-1064z" />
<glyph unicode="[" horiz-adv-x="608" d="M112 -348v1832h440v-148h-252v-1536h252v-76q0 -72 -68 -72h-372z" />
<glyph unicode="\" horiz-adv-x="732" d="M72 1532h72q16 0 24 -20l492 -1688h-92z" />
<glyph unicode="]" horiz-adv-x="608" d="M112 -200h248v1536h-248v76q0 72 64 72h376v-1832h-440v148z" />
<glyph unicode="^" horiz-adv-x="788" d="M164 1180l100 120q60 76 140 76q81 0 136 -76l100 -120h-108l-112 124q-16 16 -40 0l-80 -88q-36 -36 -84 -36h-52z" />
<glyph unicode="_" horiz-adv-x="1164" d="M76 -236q0 112 120 112h916v-124h-1036v12z" />
<glyph unicode="`" horiz-adv-x="620" d="M120 1392h132q48 0 68 -36l96 -176h-88z" />
<glyph unicode="a" horiz-adv-x="1112" d="M92 316q8 264 336 324q127 20 232 40q144 24 144 140q0 128 -225 128h-27q-220 -4 -220 -148h-192q0 295 416 300q431 0 436 -260v-456q0 -203 -116 -304q-115 -100 -388 -100q-396 0 -396 323v13zM296 310q0 -174 224 -174q284 0 284 248v204q-28 -23 -88 -40 q-53 -15 -192 -32q-228 -32 -228 -206z" />
<glyph unicode="b" horiz-adv-x="1180" d="M112 472v920h68q120 0 120 -116v-344q96 168 324 168q464 0 464 -554v-10q0 -283 -110 -420q-109 -136 -382 -136q-276 0 -380 140t-104 352zM296 540q0 -392 304 -392t304 392t-304 392t-304 -392z" />
<glyph unicode="c" horiz-adv-x="1148" d="M96 540q0 560 488 560q408 0 468 -360h-188q-64 192 -272 192q-304 0 -312 -392q0 -388 312 -388q172 12 232 116q36 64 108 64h120q-84 -352 -476 -352q-480 0 -480 560z" />
<glyph unicode="d" horiz-adv-x="1180" d="M96 536q0 -283 110 -420q109 -136 382 -136q276 0 380 140t104 352v804q0 116 -120 116h-68v-460q-96 168 -324 168q-464 0 -464 -554v-10zM280 540q0 392 304 392t304 -392t-304 -392t-304 392z" />
<glyph unicode="e" horiz-adv-x="1168" d="M96 540q5 560 492 560q482 0 482 -558q0 -34 -2 -70h-1h-1h-1h-1h-1h-1h-1h-1h-1h-1h-1h-1h-1h-1h-1h-1h-1h-1h-1h-1h-1h-1h-1h-1h-1h-1h-1h-1h-1h-1h-1h-1h-1h-1h-1h-1h-1h-1h-1h-1h-1h-1h-1h-1h-1h-1h-1h-1h-1h-1h-1h-1h-1h-1h-1h-1h-1h-1h-1h-1h-1h-1h-1h-1h-1h-1h-1 h-1h-1h-1h-1h-1h-1h-1h-1h-1h-1h-1h-1h-1h-1h-1h-1h-1h-1h-1h-1h-1h-1h-1h-1h-1h-1h-1h-1h-1h-1h-1h-1h-1h-1h-1h-1h-1h-1h-1h-1h-1h-1h-1h-1h-1h-1h-1h-1h-1h-1h-1h-1h-1h-1h-1h-1h-1h-1h-1h-1h-1h-1h-1h-1h-1h-1h-1h-1h-1h-1h-1h-1h-1h-1h-1h-1h-1h-1h-1h-1h-1h-1h-1h-1 h-1h-1h-1h-1h-1h-1h-1h-1h-1h-1h-1h-1h-1h-1h-1h-1h-1h-1h-1h-1h-1h-1h-1h-1h-1h-1h-1h-1h-1h-1h-1h-1h-1h-1h-1h-1h-1h-1h-1h-1h-1h-1h-1h-1h-1h-1h-1h-1h-1h-1h-1h-1h-1h-1h-1h-1h-1h-1h-1h-1h-1h-1h-1h-1h-1h-1h-1h-1h-1h-1h-1h-1h-1h-1h-1h-1h-1h-1h-1h-1h-1h-1h-1h-1 h-1h-1h-1h-1h-1h-1h-1h-1h-1h-1h-1h-1h-1h-1h-1h-1h-1h-1h-1h-1h-1h-1h-1h-1h-1h-1h-1h-1h-1h-1h-1h-1h-1h-1h-1h-1h-1h-1h-1h-1h-1h-1h-1h-1h-1h-1h-1h-1h-1h-1h-1h-1h-1h-1h-1h-1h-1h-1h-1h-1h-1h-1h-1h-1h-1h-1h-1h-1h-1h-1h-1h-1h-1h-1h-1h-1h-1h-1h-1h-1h-1h-1h-1h-1 h-1h-1h-1h-1h-1h-1h-1h-1h-1h-1h-1h-1h-1h-1h-1h-1h-1h-1h-1h-1h-1h-1h-1h-1h-1h-1h-1h-1h-1h-1h-1h-1h-1h-1h-1h-1h-1h-1h-1h-1h-1h-1h-1h-1h-1h-1h-1h-1h-1h-1h-1h-1h-1h-1h-1h-1h-1h-1h-1h-1h-1h-1h-1h-1h-1h-1h-1h-1h-1h-1h-1h-1h-1h-1h-1h-1h-1h-1h-1h-1h-1h-1h-1h-1 h-1h-1h-1h-1h-1h-1h-1h-1h-1h-1h-1h-1h-1h-1h-1h-1h-1h-1h-1h-1h-1h-1h-1h-1h-1h-1h-1h-1h-1h-1h-1h-1h-1h-1h-1h-1h-1h-1h-1h-1h-1h-1h-1h-1h-1h-1h-1h-1h-1h-1h-1h-1h-1h-1h-1h-1h-1h-1h-1h-1h-1h-1h-1h-1h-1h-1h-1h-1h-1h-1h-1h-1h-1h-1h-1h-1h-1h-1h-1h-1h-1h-1h-1h-1 h-1h-1h-1h-1h-1h-1h-1h-1h-1h-1h-1h-1h-1h-1h-1h-1h-1h-1h-1h-1h-1h-1h-1h-1h-1h-1h-1h-1h-1h-1h-1h-1h-1h-1h-1h-1h-1h-1h-1h-1h-1h-1h-1h-1h-1h-1h-1h-1h-1h-1h-1h-1h-1h-1h-1h-1h-1h-1h-1h-1h-1h-1h-1h-1h-1h-1h-1h-1h-1h-1h-1h-1h-1h-1h-1h-1h-1h-1h-1h-1h-1h-1h-1h-1 h-1h-1h-1h-1h-1h-1h-1h-1h-1h-1h-1h-1h-1h-1h-1h-1h-1h-1h-1h-1h-1h-1h-1h-1h-1h-1h-1h-1h-1h-1h-1h-1h-1h-1h-1h-1h-1h-1h-1h-1h-1h-1h-1h-1h-1h-1h-1h-1h-1h-1h-1h-1h-1h-1h-1h-1h-1h-1h-1h-1h-1h-1h-1h-1h-1h-1h-1h-1h-1h-1h-1h-1h-1h-1h-1h-1h-1h-1h-1h-1h-1h-1h-1h-1 h-1h-1h-1h-1h-1h-1h-1h-1h-1h-1h-1h-1h-1h-1h-1h-1h-1h-1h-1h-1h-1h-1h-1h-1h-1h-1h-1h-1h-1h-1h-1h-1h-1h-1h-1h-1h-1h-1h-1h-1h-1h-1h-1h-1h-1h-1h-1h-1h-1h-1h-1h-1h-1h-1h-1h-1h-1h-1h-1h-1h-1h-1h-1h-1h-1h-1h-1h-1h-1h-1h-1h-1h-1h-1h-1h-1h-1h-1h-1h-1h-1h-1h-1h-1 h-1h-1h-1h-1h-1h-1h-1h-1h-1h-1h-1h-1h-1h-1h-1h-1h-1h-1h-1h-1h-1h-1h-1h-1h-1h-1h-1h-1h-1h-1h-1h-1h-1h-1h-1h-1h-9q24 -320 308 -320q172 12 232 116q36 64 108 64h120q-84 -352 -476 -352q-472 0 -480 560zM284 628q608 0 600 0q-31 304 -298 304q-266 0 -302 -304z " />
<glyph unicode="f" horiz-adv-x="608" d="M112 0v1128q0 116 56 184q53 73 240 80h104v-168h-64q-76 0 -112 -24q-36 -32 -36 -100v-112h208v-28q0 -104 -112 -104h-96v-856h-188z" />
<glyph unicode="g" horiz-adv-x="1180" d="M92 544q4 280 127 419q121 137 358 137h7q247 0 366 -140q118 -139 118 -352v-620q0 -438 -488 -438h-2q-245 1 -362 90q-105 82 -105 236q0 15 1 32h200q0 -190 278 -190h6q284 2 284 274v156q-96 -168 -324 -168q-464 0 -464 545v19zM276 540q0 -392 304 -392t304 392 t-304 392t-304 -392z" />
<glyph unicode="h" horiz-adv-x="1128" d="M112 0v1392h68h8q112 0 112 -116v-344q108 168 300 168q432 0 432 -460v-640h-192v640q0 296 -268 296q-272 0 -272 -304v-632h-188z" />
<glyph unicode="i" d="M112 0h188v968q0 116 -120 116h-68v-1084zM112 1232h188v44q0 116 -120 116h-68v-160z" />
<glyph unicode="j" d="M16 -256h48q48 4 48 52v1288h68q120 0 120 -120v-1200q0 -184 -240 -188h-44v168zM112 1232h188v44q0 116 -120 116h-68v-160z" />
<glyph unicode="k" horiz-adv-x="1008" d="M112 0v1392h68q120 0 120 -116v-684l420 452h256l-388 -412l416 -632h-248l-224 372q-65 104 -152 104q-80 -5 -80 -88v-388h-188z" />
<glyph unicode="l" d="M112 0h188v1276q0 116 -120 116h-68v-1392z" />
<glyph unicode="m" horiz-adv-x="1868" d="M112 0v640v10q0 454 460 454q263 0 364 -140q112 136 364 136h8q224 0 337 -113q115 -115 115 -347v-640h-68q-120 0 -120 116v544q0 276 -272 276q-136 0 -203 -65q-65 -63 -65 -188v-7v-676h-192v672q0 264 -272 264q-268 0 -268 -268v-8v-660h-188z" />
<glyph unicode="n" horiz-adv-x="1152" d="M112 0v640v10q0 454 460 454t460 -454v-10v-640h-72q-120 0 -120 116v544q0 276 -268 276q-272 0 -272 -276v-660h-188z" />
<glyph unicode="o" horiz-adv-x="1168" d="M96 540q0 560 488 560t488 -560t-496 -560q-480 0 -480 560zM280 540q0 -388 304 -388q304 4 304 388q0 198 -76 296q-74 96 -222 96h-6q-304 0 -304 -392z" />
<glyph unicode="p" horiz-adv-x="1180" d="M112 -424h68q120 0 120 116v456q96 -168 324 -168h6q228 0 342 139q116 141 116 425v26q0 262 -117 395q-120 135 -361 135h-14q-244 -4 -365 -123q-119 -117 -119 -345v-8v-1048zM296 540q0 392 304 392t304 -392t-304 -392t-304 392z" />
<glyph unicode="q" horiz-adv-x="1180" d="M96 544v26q0 530 492 530q244 0 365 -119q119 -117 119 -349v-8v-1048h-68q-120 0 -120 116v456q-96 -168 -324 -168h-6q-228 0 -342 139q-116 141 -116 425zM280 540q0 -392 304 -392t304 392t-304 392t-304 -392z" />
<glyph unicode="r" horiz-adv-x="776" d="M112 0v596q0 488 488 488h68v-188h-84q-279 0 -284 -272v-624h-188z" />
<glyph unicode="s" horiz-adv-x="1140" d="M96 352h188q12 -220 286 -220t274 152v10q0 44 -33 74q-37 34 -115 52q-58 12 -308 84q-251 72 -256 284q0 296 424 312q396 0 448 -304h-132h-11q-59 0 -81 52q-40 96 -232 96q-220 -4 -220 -140q0 -88 126 -124t342 -96q248 -72 248 -256q0 -348 -488 -348 q-236 0 -351 93q-109 88 -109 261v18z" />
<glyph unicode="t" horiz-adv-x="580" d="M112 188v1204h68h8q112 0 112 -116v-192h208v-28q0 -104 -112 -104h-96v-688q0 -104 124 -104h48v-152q-46 -8 -76 -8q-25 -2 -48 -2q-236 0 -236 190z" />
<glyph unicode="u" horiz-adv-x="1144" d="M112 436v648h188v-668q0 -112 64 -194t208 -82q140 0 204 82t64 194v548q0 120 120 120h72v-648q0 -456 -460 -456t-460 456z" />
<glyph unicode="v" horiz-adv-x="1176" d="M112 1084h196l280 -832l244 712q41 120 160 120h76l-380 -1084h-196z" />
<glyph unicode="w" horiz-adv-x="1712" d="M112 1084h212l192 -808l220 808h248l220 -808l164 688q24 120 160 120h84l-308 -1084h-196l-248 848l-244 -848h-200z" />
<glyph unicode="x" horiz-adv-x="1064" d="M68 0l376 584l-316 500h220l216 -368l224 388q43 76 140 76h136l-380 -592l380 -588h-228l-272 456l-272 -456h-224z" />
<glyph unicode="y" horiz-adv-x="1156" d="M112 1084h196l280 -832l244 712q32 120 160 120h76l-440 -1248q-60 -140 -140 -200q-72 -60 -188 -60h-44v168h44q132 0 172 96q19 45 19 98q0 58 -23 126z" />
<glyph unicode="z" horiz-adv-x="1144" d="M112 0v180l696 768h-552q-108 0 -108 108v28h868v-196l-696 -752h716v-136h-924z" />
<glyph unicode="{" horiz-adv-x="796" d="M72 512v136q147 0 212 68q35 40 52 106q16 64 16 118v336q5 116 88 168q65 44 200 44h120v-136q-118 4 -184 -52q-52 -48 -52 -112v-308q0 -207 -140 -272q-58 -23 -128 -28q63 -12 128 -36q140 -53 140 -268v-236q-8 -204 128 -228q66 -12 108 -8v-76q0 -56 -64 -56 q-176 0 -256 44q-88 48 -88 168v332q0 151 -68 228q-65 68 -212 68z" />
<glyph unicode="|" horiz-adv-x="436" d="M152 -508v2136q0 96 100 96h12v-2232h-112z" />
<glyph unicode="}" horiz-adv-x="796" d="M72 -196v-76q0 -56 64 -56q176 0 256 44q88 48 88 168v332q0 151 68 228q65 68 212 68v136q-147 0 -212 68q-35 40 -52 106q-16 64 -16 118v336q-5 116 -88 168q-65 44 -200 44h-120v-136q118 4 184 -52q52 -48 52 -112v-308q0 -207 140 -272q58 -23 128 -28 q-62 -12 -128 -36q-140 -53 -140 -268v-236q8 -204 -128 -228q-66 -12 -108 -8z" />
<glyph unicode="~" horiz-adv-x="776" d="M56 532v28q5 61 68 92q85 44 264 -16q228 -80 312 -48q-4 0 -16 -36q-36 -89 -212 -36q-215 88 -328 64q-35 -7 -88 -48z" />
<glyph horiz-adv-x="1068" d="M0 112v1512h512v-1512h-512zM36 152h444v1432h-444v-1432z" />
<glyph unicode="&#xa1;" d="M112 0l28 1112h132l28 -1012q7 -100 -96 -100h-92zM112 1188v192h188v-120q0 -72 -68 -72h-120z" />
<glyph unicode="&#xa2;" horiz-adv-x="1148" d="M92 540q0 260 128 412q128 153 364 148q63 0 88 -4l44 152h88l-48 -172q256 -64 292 -328h-192q-36 120 -148 160l-220 -748q40 -12 96 -12q140 -5 244 128q32 56 104 56h116q-29 -117 -104 -204q-60 -80 -156 -114q-95 -34 -204 -34q-70 0 -144 20l-60 -200 q-8 -20 -24 -20h-72l72 244q-83 42 -136 104q-128 152 -128 412zM280 540q0 -255 128 -344l216 732q-84 4 -148 -12q-196 -76 -196 -376z" />
<glyph unicode="&#xa3;" horiz-adv-x="1092" d="M72 536v120h204q-6 40 -20 88h-184v120h152q-20 82 -20 196q0 160 112 256q113 96 292 96q160 0 264 -80q48 -40 78 -114q30 -73 42 -134l-84 -12q-68 -8 -84 28q-8 8 -32 64q-60 120 -192 120t-190 -72q-58 -71 -50 -180q0 -38 8 -84q7 -39 20 -84h352q44 0 44 -48v-72 h-368q19 -82 20 -88h304q44 0 44 -44v-76h-336q-5 -86 -50 -186q-46 -100 -90 -166q90 24 186 10q90 -13 186 -38q84 -24 144 -18t144 42l72 -152q-99 -40 -212 -40q-107 0 -230 38t-206 38q-88 0 -130 -18q-45 -19 -90 -46l-68 156q71 55 130 168q58 112 58 212h-220z" />
<glyph unicode="&#xa4;" horiz-adv-x="1056" d="M100 300l124 124q-96 115 -96 266q0 150 96 266l-124 128l64 60l124 -124q116 96 266 96t270 -96l124 124l60 -60l-124 -128q96 -116 96 -266t-96 -266l124 -124l-60 -64l-124 124q-120 -96 -270 -96t-266 96l-124 -124zM216 688q0 -140 100 -236q96 -100 236 -100 t240 100q96 96 96 236t-96 240q-100 96 -240 96t-236 -96q-100 -100 -100 -240z" />
<glyph unicode="&#xa5;" horiz-adv-x="1344" d="M112 1392h232l332 -640l296 564q40 76 136 76h136l-292 -528h168q44 0 44 -44v-76h-280l-48 -84h284q44 0 44 -44v-76h-392v-540h-188v540h-392v120h328l-48 84h-280v120h212z" />
<glyph unicode="&#xa6;" horiz-adv-x="348" d="M112 260q0 96 100 96h12v-752h-112v656zM112 644v656q0 96 100 96h12v-752h-112z" />
<glyph unicode="&#xa7;" horiz-adv-x="988" d="M104 736q0 176 172 252q-112 79 -104 192q7 231 300 236q297 0 328 -220l-112 -16q-56 -8 -72 28q-44 96 -132 96q-132 0 -140 -108q0 -60 48 -100q12 -12 360 -252q225 -152 88 -364q-31 -47 -136 -128l28 -28q85 -85 92 -184q0 -252 -324 -252t-344 236l88 8 q68 5 80 -44q24 -88 164 -88q156 0 168 128q0 84 -264 244q-152 89 -236 192q-52 64 -52 172zM252 780q0 -105 124 -196l256 -176q140 109 76 236q-17 37 -352 284q-97 -41 -104 -148z" />
<glyph unicode="&#xa8;" horiz-adv-x="796" d="M156 1232v160h100q60 0 60 -60v-100h-160zM496 1232v160h100q60 0 60 -60v-100h-160z" />
<glyph unicode="&#xa9;" horiz-adv-x="1708" d="M112 744q0 304 216 522t524 218t526 -218t218 -522q0 -312 -218 -528t-526 -216t-524 216t-216 528zM180 744q0 -281 196 -478q196 -198 476 -198q276 0 476 198t200 478q0 276 -200 474t-476 198q-280 0 -476 -198q-196 -197 -196 -474zM450 746q1 417 398 422 q156 4 240 -72q80 -72 96 -192h-56q-56 0 -84 60q-56 108 -204 108q-272 0 -272 -332q0 -321 268 -328q56 0 108 24t84 72q22 33 40 80h116q-17 -120 -100 -192q-55 -43 -124 -60q-65 -16 -132 -16q-380 8 -378 426z" />
<glyph unicode="&#xaa;" horiz-adv-x="712" d="M84 948q4 160 200 196q62 7 140 24q84 12 84 80q0 83 -148 76q-132 0 -132 -88h-116q0 175 248 180q260 0 260 -156v-272q0 -120 -68 -180t-232 -60q-120 0 -179 50t-57 150zM96 616v20q0 60 56 60h460v-80h-516zM208 946q0 -102 132 -102q168 0 168 144v124 q-15 -15 -52 -26q-36 -11 -112 -18q-136 -19 -136 -122z" />
<glyph unicode="&#xab;" horiz-adv-x="820" d="M132 548q0 44 24 78q23 33 52 62l120 100v-112l-124 -112q-20 -20 0 -40l88 -80q36 -32 36 -80v-52l-120 100q-28 24 -52 58t-24 78zM452 548q0 44 24 78q23 33 52 62l120 100v-112l-124 -112q-20 -20 0 -40l88 -80q36 -32 36 -80v-52l-120 100q-28 24 -52 58t-24 78z " />
<glyph unicode="&#xac;" horiz-adv-x="1188" d="M144 752h872v112h-776q-96 0 -96 -100v-12zM904 432h12q100 0 100 96v224h-112v-320z" />
<glyph unicode="&#xad;" horiz-adv-x="548" d="M72 476v64q0 56 56 56h328v-120h-384z" />
<glyph unicode="&#xae;" horiz-adv-x="1708" d="M112 744q0 304 216 522t524 218t526 -218t218 -522q0 -312 -218 -528t-526 -216t-524 216t-216 528zM180 744q0 -281 196 -478q196 -198 476 -198q276 0 476 198t200 478q0 276 -200 474t-476 198q-280 0 -476 -198q-196 -197 -196 -474zM544 332v748q0 72 64 72h292 q252 0 252 -220q-5 -152 -124 -212q72 -17 96 -80q15 -49 20 -192q4 -100 16 -116h-120q-8 26 -8 76q-5 189 -40 232q-17 32 -68 32h-268v-340h-112zM656 764h232q144 12 144 156q0 70 -33 104t-99 32h-244v-292z" />
<glyph unicode="&#xaf;" horiz-adv-x="896" d="M112 1060v64q0 56 56 56h608v-120h-664z" />
<glyph unicode="&#xb0;" horiz-adv-x="712" d="M200 1186q0 150 148 150q152 0 152 -150t-150 -150t-150 150zM252 1190q0 -98 98 -98t98 98t-100 98q-96 0 -96 -98z" />
<glyph unicode="&#xb1;" horiz-adv-x="916" d="M112 88v60q0 60 56 60h628v-120h-684zM112 584v64q0 56 56 56h224v284h64q56 0 56 -60v-224h284v-120h-284v-284h-120v284h-280z" />
<glyph unicode="&#xb2;" horiz-adv-x="616" d="M64 744q-4 67 44 144q35 63 184 164q72 52 106 88q34 35 34 76q4 124 -124 124q-72 0 -106 -42q-34 -41 -26 -102h-52q-44 0 -44 32q5 96 68 142q64 46 168 46q91 0 152 -50q60 -49 60 -146q0 -89 -64 -144q-66 -59 -168 -134q-97 -71 -104 -122h336v-76h-464z" />
<glyph unicode="&#xb3;" horiz-adv-x="616" d="M52 952h96q0 -136 144 -136q152 0 152 116q0 68 -52 96q-56 24 -120 24v72q148 0 152 108q2 54 -30 81t-98 27q-127 0 -120 -136h-44q-56 0 -52 52q19 155 220 160q208 -4 212 -176q0 -60 -24 -96t-64 -48q116 -29 116 -160q0 -108 -64 -156q-67 -52 -192 -52 q-124 0 -176 64q-56 65 -56 160z" />
<glyph unicode="&#xb4;" horiz-adv-x="480" d="M104 1180l96 176q16 36 64 36h132l-204 -212h-88z" />
<glyph unicode="&#xb5;" horiz-adv-x="1196" d="M112 -304v1388h188v-668q0 -112 54 -194t198 -82q140 0 194 82t54 194v548q0 120 120 120h72v-868q0 -48 44 -48h52v-168h-48q-159 0 -200 56q-107 -76 -288 -76q-145 0 -252 52v-456h-68q-120 0 -120 120z" />
<glyph unicode="&#xb6;" horiz-adv-x="1040" d="M88 1068q0 148 100 232q104 92 264 92h468v-24q0 -56 -56 -56h-56v-1232q0 -31 -14 -56q-14 -24 -90 -24v1312h-164v-1312h-108v740q-156 12 -252 96q-92 92 -92 232z" />
<glyph unicode="&#xb7;" horiz-adv-x="720" d="M236 696q0 48 36 84t88 36q47 0 88 -36q36 -36 36 -84q0 -52 -36 -88q-40 -40 -92 -40q-44 0 -84 40q-36 36 -36 88z" />
<glyph unicode="&#xb8;" horiz-adv-x="1012" d="M204 -176q0 169 188 104q297 -108 368 -92q34 13 52 24v-56q0 -104 -76 -108q-53 -12 -228 52q-185 56 -236 44q-37 -5 -68 -36v68z" />
<glyph unicode="&#xb9;" horiz-adv-x="456" d="M88 1216v68q61 0 102 34t58 78h24q48 0 48 -48v-612h-92v480h-140z" />
<glyph unicode="&#xba;" horiz-adv-x="712" d="M68 1084q0 336 288 336q292 0 292 -336q0 -332 -296 -332q-284 0 -284 332zM96 616v20q0 60 56 60h460v-80h-516zM176 1084q0 -232 180 -232q180 4 180 232q0 236 -180 236t-180 -236z" />
<glyph unicode="&#xbb;" horiz-adv-x="820" d="M160 312l120 100q28 24 52 58t24 78t-24 78q-23 33 -52 62l-120 100v-112l124 -112q20 -20 0 -40l-88 -80q-36 -32 -36 -80v-52zM480 312l120 100q28 24 52 58t24 78t-24 78q-23 33 -52 62l-120 100v-112l124 -112q20 -20 0 -40l-88 -80q-36 -32 -36 -80v-52z" />
<glyph unicode="&#xbc;" horiz-adv-x="1132" d="M72 0l796 1356q6 10 20 24q16 16 56 16h28l-812 -1396h-88zM108 1192v72q68 0 116 42q47 41 64 90h28q52 0 52 -52v-640h-100v488h-160zM552 180v104l264 424h88q64 0 64 -64v-380h112v-84h-112v-180h-108v180h-308zM640 264h224v352z" />
<glyph unicode="&#xbd;" horiz-adv-x="1116" d="M72 0l796 1356q6 10 20 24q16 16 56 16h28l-812 -1396h-88zM108 1192v72q68 0 116 42q47 41 64 90h28q52 0 52 -52v-640h-100v488h-160zM572 0q-5 72 48 152q37 69 192 172q73 53 112 92q36 36 36 80q2 64 -31 96t-101 32q-76 0 -112 -44q-36 -43 -28 -104h-52 q-48 0 -48 32q4 100 72 148t176 48q96 0 160 -52t64 -152q0 -92 -68 -152q-84 -74 -176 -140q-100 -72 -108 -128h352v-80h-488z" />
<glyph unicode="&#xbe;" horiz-adv-x="1132" d="M76 912h96q0 -140 148 -140q156 0 156 120q0 68 -52 96q-56 24 -124 24v76q152 0 156 112q4 108 -132 108q-128 0 -120 -140h-48q-57 0 -52 56q19 159 224 164q215 -4 220 -180q0 -63 -26 -100q-26 -36 -66 -48q120 -28 120 -164q0 -112 -68 -160q-68 -56 -196 -56 q-127 0 -180 68q-56 65 -56 164zM164 0l796 1352q6 10 20 24q16 16 56 16h28l-812 -1392h-88zM552 180v104l264 424h88q64 0 64 -64v-380h112v-84h-112v-180h-108v180h-308zM640 264h224v352z" />
<glyph unicode="&#xbf;" horiz-adv-x="1096" d="M112 352q0 127 116 264q140 151 200 210q56 54 56 170v80h188v-88q0 -163 -152 -320l-138 -138q-78 -78 -78 -178q8 -212 232 -220q119 0 190 62q70 61 70 210h104q80 0 80 -76q-36 -348 -444 -348q-424 0 -424 372zM480 1200v192h192v-120q0 -72 -72 -72h-120z" />
<glyph unicode="&#xc0;" horiz-adv-x="1476" d="M108 0l460 1320q24 72 108 72h204l492 -1392h-224l-116 324h-584l-112 -324h-228zM492 484h492l-244 720zM516 1720h132q44 0 68 -36l96 -176h-92z" />
<glyph unicode="&#xc1;" horiz-adv-x="1476" d="M108 0l460 1320q24 72 108 72h204l492 -1392h-224l-116 324h-584l-112 -324h-228zM492 484h492l-244 720zM720 1508l96 176q24 36 68 36h132l-204 -212h-92z" />
<glyph unicode="&#xc2;" horiz-adv-x="1476" d="M108 0l460 1320q24 72 108 72h204l492 -1392h-224l-116 324h-584l-112 -324h-228zM492 484h492l-244 720zM504 1540l100 120q24 28 58 52t82 24q39 0 74 -24q33 -23 62 -52l100 -120h-112l-112 124q-24 20 -36 0l-80 -84q-36 -40 -84 -40h-52z" />
<glyph unicode="&#xc3;" horiz-adv-x="1476" d="M108 0l460 1320q24 72 108 72h204l492 -1392h-224l-116 324h-584l-112 -324h-228zM492 484h492l-244 720zM520 1596v52q-4 63 52 80q54 16 192 -34q137 -50 184 -38q25 5 40 20v-44q0 -77 -64 -84q-37 -8 -172 40q-136 48 -184 36q-13 0 -48 -28z" />
<glyph unicode="&#xc4;" horiz-adv-x="1476" d="M108 0l460 1320q24 72 108 72h204l492 -1392h-224l-116 324h-584l-112 -324h-228zM492 484h492l-244 720zM492 1564v156h100q60 0 60 -56v-100h-160zM832 1564v156h100q60 0 60 -56v-100h-160z" />
<glyph unicode="&#xc5;" horiz-adv-x="1476" d="M108 0l460 1320q24 72 108 72h204l492 -1392h-224l-116 324h-584l-112 -324h-228zM492 484h492l-244 720zM592 1592q0 144 148 144q152 0 152 -144t-150 -144t-150 144zM644 1598q0 -94 98 -94t98 94t-100 94q-96 0 -96 -94z" />
<glyph unicode="&#xc6;" horiz-adv-x="2100" d="M40 0l884 1312q25 33 60 56q36 24 108 24h104h812v-156h-740v-432h556v-52q0 -104 -116 -104h-440v-492h740v-156h-932v300h-608l-208 -300h-220zM580 468h496v744z" />
<glyph unicode="&#xc7;" horiz-adv-x="1420" d="M94 688q2 709 666 716q263 4 408 -124q131 -119 160 -320h-96q-97 0 -140 100q-91 184 -340 184q-226 2 -341 -137t-119 -419q7 -551 448 -556q296 8 392 296h196q-96 -456 -600 -448q-636 0 -634 708zM404 -176q0 169 188 104q297 -108 368 -92q34 13 52 24v-56 q0 -104 -76 -108q-53 -12 -228 52q-185 56 -236 44q-37 -5 -68 -36v68z" />
<glyph unicode="&#xc8;" horiz-adv-x="1140" d="M112 0v1276q0 116 120 116h816v-156h-748v-428h564v-52q0 -104 -116 -104h-448v-496h748v-156h-936zM392 1720h132q45 0 64 -40l96 -172h-88z" />
<glyph unicode="&#xc9;" horiz-adv-x="1140" d="M112 0v1276q0 116 120 116h816v-156h-748v-428h564v-52q0 -104 -116 -104h-448v-496h748v-156h-936zM540 1508l96 172q19 40 64 40h132l-204 -212h-88z" />
<glyph unicode="&#xca;" horiz-adv-x="1140" d="M112 0v1276q0 116 120 116h816v-156h-748v-428h564v-52q0 -104 -116 -104h-448v-496h748v-156h-936zM340 1540l104 116q60 76 136 76t140 -76l96 -116h-108l-112 124q-20 20 -40 0l-80 -88q-36 -36 -80 -36h-56z" />
<glyph unicode="&#xcb;" horiz-adv-x="1140" d="M112 0v1276q0 116 120 116h816v-156h-748v-428h564v-52q0 -104 -116 -104h-448v-496h748v-156h-936zM328 1564v156h100q60 0 60 -56v-100h-160zM672 1564v156h96q60 0 60 -56v-100h-156z" />
<glyph unicode="&#xcc;" d="M32 1720h128q40 0 68 -40l92 -172h-88zM112 0v1276q0 116 120 116h68v-1392h-188z" />
<glyph unicode="&#xcd;" d="M112 0v1276q0 116 120 116h68v-1392h-188zM172 1508l96 172q19 40 64 40h132l-204 -212h-88z" />
<glyph unicode="&#xce;" d="M-28 1540l96 116q60 76 140 76q72 0 136 -76l100 -116h-112l-112 124q-24 20 -36 0l-80 -88q-36 -36 -80 -36h-52zM112 0v1276q0 116 120 116h68v-1392h-188z" />
<glyph unicode="&#xcf;" d="M-40 1564v156h96q60 0 60 -56v-100h-156zM112 0v1276q0 116 120 116h68v-1392h-188zM296 1564v156h100q60 0 60 -56v-100h-160z" />
<glyph unicode="&#xd0;" horiz-adv-x="1400" d="M-28 612v172h200v492q0 116 120 116h408q616 0 616 -684t-552 -708h-592v612h-200zM364 156h328q432 4 432 546q0 271 -100 404.5t-300 129.5h-360v-452h244q128 0 124 -124v-48h-368v-456z" />
<glyph unicode="&#xd1;" horiz-adv-x="1320" d="M112 0v1280q0 112 120 112h152l644 -1104v1104h188v-1392h-236l-680 1144v-1144h-188zM432 1588v52q0 128 144 80q228 -84 284 -72q22 7 40 20v-44q0 -80 -60 -84q-41 -8 -176 40q-140 44 -180 36q-28 -4 -52 -28z" />
<glyph unicode="&#xd2;" horiz-adv-x="1516" d="M96 688q5 716 660 716q660 0 660 -716q-12 -712 -660 -712t-660 712zM292 688q7 -556 464 -556q456 0 460 556q0 282 -116 421t-348 135q-456 0 -460 -556zM516 1720h132q48 0 68 -36l96 -172h-88z" />
<glyph unicode="&#xd3;" horiz-adv-x="1516" d="M96 688q5 716 660 716q660 0 660 -716q-12 -712 -660 -712t-660 712zM292 688q7 -556 464 -556q456 0 460 556q0 282 -116 421t-348 135q-456 0 -460 -556zM692 1512l96 172q16 36 64 36h132l-204 -208h-88z" />
<glyph unicode="&#xd4;" horiz-adv-x="1516" d="M96 688q5 716 660 716q660 0 660 -716q-12 -712 -660 -712t-660 712zM292 688q7 -556 464 -556q456 0 460 556q0 282 -116 421t-348 135q-456 0 -460 -556zM516 1544l104 116q60 76 136 76t140 -76l96 -116h-108l-112 124q-16 16 -40 0l-80 -88q-36 -36 -84 -36h-52z" />
<glyph unicode="&#xd5;" horiz-adv-x="1516" d="M96 688q5 716 660 716q660 0 660 -716q-12 -712 -660 -712t-660 712zM292 688q7 -556 464 -556q456 0 460 556q0 282 -116 421t-348 135q-456 0 -460 -556zM508 1600v52q-4 63 52 80q54 16 192 -34q137 -50 184 -38q25 5 40 20v-44q0 -77 -64 -84q-37 -8 -172 40 q-136 48 -184 36q-13 0 -48 -28z" />
<glyph unicode="&#xd6;" horiz-adv-x="1516" d="M96 688q5 716 660 716q660 0 660 -716q-12 -712 -660 -712t-660 712zM292 688q7 -556 464 -556q456 0 460 556q0 282 -116 421t-348 135q-456 0 -460 -556zM504 1564v156h100q60 0 60 -60v-96h-160zM848 1564v156h96q60 0 60 -60v-96h-156z" />
<glyph unicode="&#xd7;" horiz-adv-x="916" d="M72 0l308 420l-308 420h180l220 -296l168 224q32 45 74 58q44 14 98 14h64l-312 -420l312 -420h-184l-220 296l-220 -296h-180z" />
<glyph unicode="&#xd8;" horiz-adv-x="1516" d="M68 0l168 192q-133 181 -140 496q5 716 660 716q323 0 436 -128l92 100h152l-164 -184q144 -140 144 -504q-12 -712 -660 -712q-276 0 -436 132l-96 -108h-156zM292 688q0 -205 76 -348l708 800q-77 108 -324 104q-226 2 -341 -137t-119 -419zM436 244q119 -112 320 -112 q456 0 460 556q0 264 -72 352z" />
<glyph unicode="&#xd9;" horiz-adv-x="1296" d="M112 456v820q0 116 120 116h68v-896q0 -184 88 -273.5t264 -84.5q352 10 352 358v896h188v-936q0 -472 -540 -472t-540 472zM444 1720h132q44 0 64 -36l96 -172h-88z" />
<glyph unicode="&#xda;" horiz-adv-x="1296" d="M112 456v820q0 116 120 116h68v-896q0 -184 88 -273.5t264 -84.5q352 10 352 358v896h188v-936q0 -472 -540 -472t-540 472zM568 1512l96 172q16 36 64 36h132l-204 -208h-88z" />
<glyph unicode="&#xdb;" horiz-adv-x="1296" d="M112 456v820q0 116 120 116h68v-896q0 -184 88 -273.5t264 -84.5q352 10 352 358v896h188v-936q0 -472 -540 -472t-540 472zM416 1540l100 116q60 76 136 76t140 -76l96 -116h-108l-112 124q-20 20 -40 0l-80 -88q-32 -36 -80 -36h-52z" />
<glyph unicode="&#xdc;" horiz-adv-x="1296" d="M112 456v820q0 116 120 116h68v-896q0 -184 88 -273.5t264 -84.5q352 10 352 358v896h188v-936q0 -472 -540 -472t-540 472zM400 1564v156h100q60 0 60 -56v-100h-160zM744 1564v156h100q60 0 60 -56v-100h-160z" />
<glyph unicode="&#xdd;" horiz-adv-x="1344" d="M112 1392h232l332 -640l296 564q40 76 136 76h136l-472 -844v-548h-188v544zM612 1508l96 172q24 40 68 40h132l-204 -212h-92z" />
<glyph unicode="&#xde;" horiz-adv-x="964" d="M112 0v1360h80q80 0 80 -68v-268q60 52 216 60q384 16 384 -402q0 -209 -94 -311.5t-282 -98.5q-176 8 -224 60v-264q0 -68 -104 -68h-56zM264 678q0 -274 224 -274t224 274t-224 274t-224 -274z" />
<glyph unicode="&#xdf;" horiz-adv-x="1180" d="M112 -176v1144q0 180 114 302t282 122h144q376 0 372 -348q0 -184 -204 -292q252 -60 252 -316q0 -392 -444 -400h-180v160h184q252 8 252 236t-276 220h-160v164h148q240 0 240 212q0 228 -280 204q-111 0 -188 -80q-68 -68 -68 -184v-1144h-188z" />
<glyph unicode="&#xe0;" horiz-adv-x="1112" d="M92 316q8 264 336 324q127 20 232 40q144 24 144 140q0 136 -252 128q-220 -4 -220 -148h-192q0 295 416 300q431 0 436 -260v-456q0 -203 -116 -304q-115 -100 -388 -100q-404 0 -396 336zM296 310q0 -174 224 -174q284 0 284 248v204q-28 -23 -88 -40q-53 -15 -192 -32 q-228 -32 -228 -206zM320 1392h132q48 0 68 -36l96 -176h-88z" />
<glyph unicode="&#xe1;" horiz-adv-x="1112" d="M92 316q8 264 336 324q127 20 232 40q144 24 144 140q0 136 -252 128q-220 -4 -220 -148h-192q0 295 416 300q431 0 436 -260v-456q0 -203 -116 -304q-115 -100 -388 -100q-404 0 -396 336zM296 310q0 -174 224 -174q284 0 284 248v204q-28 -23 -88 -40q-53 -15 -192 -32 q-228 -32 -228 -206zM464 1180l96 176q16 36 68 36h132l-208 -212h-88z" />
<glyph unicode="&#xe2;" horiz-adv-x="1112" d="M92 316q8 264 336 324q127 20 232 40q144 24 144 140q0 136 -252 128q-220 -4 -220 -148h-192q0 295 416 300q431 0 436 -260v-456q0 -203 -116 -304q-115 -100 -388 -100q-404 0 -396 336zM296 310q0 -174 224 -174q284 0 284 248v204q-28 -23 -88 -40q-53 -15 -192 -32 q-228 -32 -228 -206zM348 1208l100 120q24 28 58 52t78 24t78 -24q33 -23 62 -52l100 -120h-112l-112 124q-20 20 -40 0l-80 -88q-32 -36 -80 -36h-52z" />
<glyph unicode="&#xe3;" horiz-adv-x="1112" d="M92 316q8 264 336 324q127 20 232 40q144 24 144 140q0 136 -252 128q-220 -4 -220 -148h-192q0 295 416 300q431 0 436 -260v-456q0 -203 -116 -304q-115 -100 -388 -100q-404 0 -396 336zM296 310q0 -174 224 -174q284 0 284 248v204q-28 -23 -88 -40q-53 -15 -192 -32 q-228 -32 -228 -206zM340 1280v52q-4 63 52 80q54 16 192 -34q137 -50 184 -38q25 5 40 20v-44q0 -77 -64 -84q-37 -8 -172 40q-136 48 -184 36q-13 0 -48 -28z" />
<glyph unicode="&#xe4;" horiz-adv-x="1112" d="M92 316q8 264 336 324q127 20 232 40q144 24 144 140q0 136 -252 128q-220 -4 -220 -148h-192q0 295 416 300q431 0 436 -260v-456q0 -203 -116 -304q-115 -100 -388 -100q-404 0 -396 336zM296 310q0 -174 224 -174q284 0 284 248v204q-28 -23 -88 -40q-53 -15 -192 -32 q-228 -32 -228 -206zM324 1232v160h100q60 0 60 -60v-100h-160zM664 1232v160h100q60 0 60 -60v-100h-160z" />
<glyph unicode="&#xe5;" horiz-adv-x="1112" d="M92 316q8 264 336 324q127 20 232 40q144 24 144 140q0 136 -252 128q-220 -4 -220 -148h-192q0 295 416 300q431 0 436 -260v-456q0 -203 -116 -304q-115 -100 -388 -100q-404 0 -396 336zM296 310q0 -174 224 -174q284 0 284 248v204q-28 -23 -88 -40q-53 -15 -192 -32 q-228 -32 -228 -206zM432 1308q0 56 42 100t102 44q56 0 98 -44t42 -100q0 -60 -42 -102t-98 -42q-60 0 -102 42t-42 102zM484 1308q0 -92 92 -92q88 0 88 92q0 88 -88 88q-92 0 -92 -88z" />
<glyph unicode="&#xe6;" horiz-adv-x="1760" d="M72 304q0 251 320 304q27 4 100.5 16t111.5 18q140 23 140 118q6 70 -55 105t-189 35q-200 0 -224 -104h-180q8 248 404 248q300 0 380 -128q116 128 332 128q468 0 464 -532v-68h-752q7 -304 288 -304q160 0 232 124q24 48 100 48h108q-24 -108 -96 -192 q-120 -140 -344 -140q-228 0 -348 144q-120 -144 -420 -144q-372 0 -372 324zM264 292q8 -164 212 -164q136 0 203 59t65 177v192q-42 -25 -76 -32q-44 -15 -192 -32q-204 -32 -212 -200zM928 592h568q-28 288 -284 288q-232 0 -284 -288z" />
<glyph unicode="&#xe7;" horiz-adv-x="1148" d="M96 540q0 560 488 560q408 0 468 -360h-188q-64 192 -272 192q-304 0 -312 -392q0 -388 312 -388q172 12 232 116q36 64 108 64h120q-84 -352 -476 -352q-480 0 -480 560zM284 -176q0 169 188 104q297 -108 368 -92q34 13 52 24v-56q0 -104 -76 -108q-53 -12 -228 52 q-185 56 -236 44q-37 -5 -68 -36v68z" />
<glyph unicode="&#xe8;" horiz-adv-x="1168" d="M96 540q5 560 492 560q511 0 480 -628h-1h-1h-1h-1h-1h-1h-1h-1h-1h-1h-1h-1h-1h-1h-1h-1h-1h-1h-1h-1h-1h-1h-1h-1h-1h-1h-1h-1h-1h-1h-1h-1h-1h-1h-1h-1h-1h-1h-1h-1h-1h-1h-1h-1h-1h-1h-1h-1h-1h-1h-1h-1h-1h-1h-1h-1h-1h-1h-1h-1h-1h-1h-1h-1h-1h-1h-1h-1h-1h-1h-1 h-1h-1h-1h-1h-1h-1h-1h-1h-1h-1h-1h-1h-1h-1h-1h-1h-1h-1h-1h-1h-1h-1h-1h-1h-1h-1h-1h-1h-1h-1h-1h-1h-1h-1h-1h-1h-1h-1h-1h-1h-1h-1h-1h-1h-1h-1h-1h-1h-1h-1h-1h-1h-1h-1h-1h-1h-1h-1h-1h-1h-1h-1h-1h-1h-1h-1h-1h-1h-1h-1h-1h-1h-1h-1h-1h-1h-1h-1h-1h-1h-1h-1h-1h-1 h-1h-1h-1h-1h-1h-1h-1h-1h-1h-1h-1h-1h-1h-1h-1h-1h-1h-1h-1h-1h-1h-1h-1h-1h-1h-1h-1h-1h-1h-1h-1h-1h-1h-1h-1h-1h-1h-1h-1h-1h-1h-1h-1h-1h-1h-1h-1h-1h-1h-1h-1h-1h-1h-1h-1h-1h-1h-1h-1h-1h-1h-1h-1h-1h-1h-1h-1h-1h-1h-1h-1h-1h-1h-1h-1h-1h-1h-1h-1h-1h-1h-1h-1h-1 h-1h-1h-1h-1h-1h-1h-1h-1h-1h-1h-1h-1h-1h-1h-1h-1h-1h-1h-1h-1h-1h-1h-1h-1h-1h-1h-1h-1h-1h-1h-1h-1h-1h-1h-1h-1h-1h-1h-1h-1h-1h-1h-1h-1h-1h-1h-1h-1h-1h-1h-1h-1h-1h-1h-1h-1h-1h-1h-1h-1h-1h-1h-1h-1h-1h-1h-1h-1h-1h-1h-1h-1h-1h-1h-1h-1h-1h-1h-1h-1h-1h-1h-1h-1 h-1h-1h-1h-1h-1h-1h-1h-1h-1h-1h-1h-1h-1h-1h-1h-1h-1h-1h-1h-1h-1h-1h-1h-1h-1h-1h-1h-1h-1h-1h-1h-1h-1h-1h-1h-1h-1h-1h-1h-1h-1h-1h-1h-1h-1h-1h-1h-1h-1h-1h-1h-1h-1h-1h-1h-1h-1h-1h-1h-1h-1h-1h-1h-1h-1h-1h-1h-1h-1h-1h-1h-1h-1h-1h-1h-1h-1h-1h-1h-1h-1h-1h-1h-1 h-1h-1h-1h-1h-1h-1h-1h-1h-1h-1h-1h-1h-1h-1h-1h-1h-1h-1h-1h-1h-1h-1h-1h-1h-1h-1h-1h-1h-1h-1h-1h-1h-1h-1h-1h-1h-1h-1h-1h-1h-1h-1h-1h-1h-1h-1h-1h-1h-1h-1h-1h-1h-1h-1h-1h-1h-1h-1h-1h-1h-1h-1h-1h-1h-1h-1h-1h-1h-1h-1h-1h-1h-1h-1h-1h-1h-1h-1h-1h-1h-1h-1h-1h-1 h-1h-1h-1h-1h-1h-1h-1h-1h-1h-1h-1h-1h-1h-1h-1h-1h-1h-1h-1h-1h-1h-1h-1h-1h-1h-1h-1h-1h-1h-1h-1h-1h-1h-1h-1h-1h-1h-1h-1h-1h-1h-1h-1h-1h-1h-1h-1h-1h-1h-1h-1h-1h-1h-1h-1h-1h-1h-1h-1h-1h-1h-1h-1h-1h-1h-1h-1h-1h-1h-1h-1h-1h-1h-1h-1h-1h-1h-1h-1h-1h-1h-1h-1h-1 h-1h-1h-1h-1h-1h-1h-1h-1h-1h-1h-1h-1h-1h-1h-1h-1h-1h-1h-1h-1h-1h-1h-1h-1h-1h-1h-1h-1h-1h-1h-1h-1h-1h-1h-1h-1h-1h-1h-1h-1h-1h-1h-1h-1h-1h-1h-1h-1h-1h-1h-1h-1h-1h-1h-1h-1h-1h-1h-1h-1h-1h-1h-1h-1h-1h-1h-1h-1h-1h-1h-1h-1h-1h-1h-1h-1h-1h-1h-1h-1h-1h-1h-1h-1 h-1h-1h-1h-1h-1h-1h-1h-1h-1h-1h-1h-1h-1h-1h-1h-1h-1h-1h-1h-1h-1h-1h-1h-1h-1h-1h-1h-1h-1h-1h-1h-1h-1h-1h-1h-1h-1h-1h-1h-1h-1h-1h-1h-1h-1h-1h-1h-1h-1h-1h-1h-1h-1h-1h-1h-1h-1h-1h-1h-1h-1h-1h-1h-1h-1h-1h-1h-1h-1h-1h-1h-1h-1h-1h-1h-1h-1h-1h-1h-1h-1h-1h-1h-1 h-1h-1h-1h-1h-1h-1h-1h-1h-1h-1h-1h-1h-1h-1h-1h-1h-1h-1h-1h-1h-1h-1h-1h-1h-1h-1h-1h-1h-1h-1h-1h-1h-9q24 -320 308 -320q172 12 232 116q36 64 108 64h120q-84 -352 -476 -352q-472 0 -480 560zM284 628q608 0 600 0q-31 304 -298 304q-266 0 -302 -304zM364 1392h132 q44 0 68 -36l96 -176h-92z" />
<glyph unicode="&#xe9;" horiz-adv-x="1168" d="M96 540q5 560 492 560q511 0 480 -628h-1h-1h-1h-1h-1h-1h-1h-1h-1h-1h-1h-1h-1h-1h-1h-1h-1h-1h-1h-1h-1h-1h-1h-1h-1h-1h-1h-1h-1h-1h-1h-1h-1h-1h-1h-1h-1h-1h-1h-1h-1h-1h-1h-1h-1h-1h-1h-1h-1h-1h-1h-1h-1h-1h-1h-1h-1h-1h-1h-1h-1h-1h-1h-1h-1h-1h-1h-1h-1h-1h-1 h-1h-1h-1h-1h-1h-1h-1h-1h-1h-1h-1h-1h-1h-1h-1h-1h-1h-1h-1h-1h-1h-1h-1h-1h-1h-1h-1h-1h-1h-1h-1h-1h-1h-1h-1h-1h-1h-1h-1h-1h-1h-1h-1h-1h-1h-1h-1h-1h-1h-1h-1h-1h-1h-1h-1h-1h-1h-1h-1h-1h-1h-1h-1h-1h-1h-1h-1h-1h-1h-1h-1h-1h-1h-1h-1h-1h-1h-1h-1h-1h-1h-1h-1h-1 h-1h-1h-1h-1h-1h-1h-1h-1h-1h-1h-1h-1h-1h-1h-1h-1h-1h-1h-1h-1h-1h-1h-1h-1h-1h-1h-1h-1h-1h-1h-1h-1h-1h-1h-1h-1h-1h-1h-1h-1h-1h-1h-1h-1h-1h-1h-1h-1h-1h-1h-1h-1h-1h-1h-1h-1h-1h-1h-1h-1h-1h-1h-1h-1h-1h-1h-1h-1h-1h-1h-1h-1h-1h-1h-1h-1h-1h-1h-1h-1h-1h-1h-1h-1 h-1h-1h-1h-1h-1h-1h-1h-1h-1h-1h-1h-1h-1h-1h-1h-1h-1h-1h-1h-1h-1h-1h-1h-1h-1h-1h-1h-1h-1h-1h-1h-1h-1h-1h-1h-1h-1h-1h-1h-1h-1h-1h-1h-1h-1h-1h-1h-1h-1h-1h-1h-1h-1h-1h-1h-1h-1h-1h-1h-1h-1h-1h-1h-1h-1h-1h-1h-1h-1h-1h-1h-1h-1h-1h-1h-1h-1h-1h-1h-1h-1h-1h-1h-1 h-1h-1h-1h-1h-1h-1h-1h-1h-1h-1h-1h-1h-1h-1h-1h-1h-1h-1h-1h-1h-1h-1h-1h-1h-1h-1h-1h-1h-1h-1h-1h-1h-1h-1h-1h-1h-1h-1h-1h-1h-1h-1h-1h-1h-1h-1h-1h-1h-1h-1h-1h-1h-1h-1h-1h-1h-1h-1h-1h-1h-1h-1h-1h-1h-1h-1h-1h-1h-1h-1h-1h-1h-1h-1h-1h-1h-1h-1h-1h-1h-1h-1h-1h-1 h-1h-1h-1h-1h-1h-1h-1h-1h-1h-1h-1h-1h-1h-1h-1h-1h-1h-1h-1h-1h-1h-1h-1h-1h-1h-1h-1h-1h-1h-1h-1h-1h-1h-1h-1h-1h-1h-1h-1h-1h-1h-1h-1h-1h-1h-1h-1h-1h-1h-1h-1h-1h-1h-1h-1h-1h-1h-1h-1h-1h-1h-1h-1h-1h-1h-1h-1h-1h-1h-1h-1h-1h-1h-1h-1h-1h-1h-1h-1h-1h-1h-1h-1h-1 h-1h-1h-1h-1h-1h-1h-1h-1h-1h-1h-1h-1h-1h-1h-1h-1h-1h-1h-1h-1h-1h-1h-1h-1h-1h-1h-1h-1h-1h-1h-1h-1h-1h-1h-1h-1h-1h-1h-1h-1h-1h-1h-1h-1h-1h-1h-1h-1h-1h-1h-1h-1h-1h-1h-1h-1h-1h-1h-1h-1h-1h-1h-1h-1h-1h-1h-1h-1h-1h-1h-1h-1h-1h-1h-1h-1h-1h-1h-1h-1h-1h-1h-1h-1 h-1h-1h-1h-1h-1h-1h-1h-1h-1h-1h-1h-1h-1h-1h-1h-1h-1h-1h-1h-1h-1h-1h-1h-1h-1h-1h-1h-1h-1h-1h-1h-1h-1h-1h-1h-1h-1h-1h-1h-1h-1h-1h-1h-1h-1h-1h-1h-1h-1h-1h-1h-1h-1h-1h-1h-1h-1h-1h-1h-1h-1h-1h-1h-1h-1h-1h-1h-1h-1h-1h-1h-1h-1h-1h-1h-1h-1h-1h-1h-1h-1h-1h-1h-1 h-1h-1h-1h-1h-1h-1h-1h-1h-1h-1h-1h-1h-1h-1h-1h-1h-1h-1h-1h-1h-1h-1h-1h-1h-1h-1h-1h-1h-1h-1h-1h-1h-1h-1h-1h-1h-1h-1h-1h-1h-1h-1h-1h-1h-1h-1h-1h-1h-1h-1h-1h-1h-1h-1h-1h-1h-1h-1h-1h-1h-1h-1h-1h-1h-1h-1h-1h-1h-1h-1h-1h-1h-1h-1h-1h-1h-1h-1h-1h-1h-1h-1h-1h-1 h-1h-1h-1h-1h-1h-1h-1h-1h-1h-1h-1h-1h-1h-1h-1h-1h-1h-1h-1h-1h-1h-1h-1h-1h-1h-1h-1h-1h-1h-1h-1h-1h-9q24 -320 308 -320q172 12 232 116q36 64 108 64h120q-84 -352 -476 -352q-472 0 -480 560zM284 628q608 0 600 0q-31 304 -298 304q-266 0 -302 -304zM524 1180 l92 176q24 36 68 36h132l-204 -212h-88z" />
<glyph unicode="&#xea;" horiz-adv-x="1168" d="M96 540q5 560 492 560q511 0 480 -628h-1h-1h-1h-1h-1h-1h-1h-1h-1h-1h-1h-1h-1h-1h-1h-1h-1h-1h-1h-1h-1h-1h-1h-1h-1h-1h-1h-1h-1h-1h-1h-1h-1h-1h-1h-1h-1h-1h-1h-1h-1h-1h-1h-1h-1h-1h-1h-1h-1h-1h-1h-1h-1h-1h-1h-1h-1h-1h-1h-1h-1h-1h-1h-1h-1h-1h-1h-1h-1h-1h-1 h-1h-1h-1h-1h-1h-1h-1h-1h-1h-1h-1h-1h-1h-1h-1h-1h-1h-1h-1h-1h-1h-1h-1h-1h-1h-1h-1h-1h-1h-1h-1h-1h-1h-1h-1h-1h-1h-1h-1h-1h-1h-1h-1h-1h-1h-1h-1h-1h-1h-1h-1h-1h-1h-1h-1h-1h-1h-1h-1h-1h-1h-1h-1h-1h-1h-1h-1h-1h-1h-1h-1h-1h-1h-1h-1h-1h-1h-1h-1h-1h-1h-1h-1h-1 h-1h-1h-1h-1h-1h-1h-1h-1h-1h-1h-1h-1h-1h-1h-1h-1h-1h-1h-1h-1h-1h-1h-1h-1h-1h-1h-1h-1h-1h-1h-1h-1h-1h-1h-1h-1h-1h-1h-1h-1h-1h-1h-1h-1h-1h-1h-1h-1h-1h-1h-1h-1h-1h-1h-1h-1h-1h-1h-1h-1h-1h-1h-1h-1h-1h-1h-1h-1h-1h-1h-1h-1h-1h-1h-1h-1h-1h-1h-1h-1h-1h-1h-1h-1 h-1h-1h-1h-1h-1h-1h-1h-1h-1h-1h-1h-1h-1h-1h-1h-1h-1h-1h-1h-1h-1h-1h-1h-1h-1h-1h-1h-1h-1h-1h-1h-1h-1h-1h-1h-1h-1h-1h-1h-1h-1h-1h-1h-1h-1h-1h-1h-1h-1h-1h-1h-1h-1h-1h-1h-1h-1h-1h-1h-1h-1h-1h-1h-1h-1h-1h-1h-1h-1h-1h-1h-1h-1h-1h-1h-1h-1h-1h-1h-1h-1h-1h-1h-1 h-1h-1h-1h-1h-1h-1h-1h-1h-1h-1h-1h-1h-1h-1h-1h-1h-1h-1h-1h-1h-1h-1h-1h-1h-1h-1h-1h-1h-1h-1h-1h-1h-1h-1h-1h-1h-1h-1h-1h-1h-1h-1h-1h-1h-1h-1h-1h-1h-1h-1h-1h-1h-1h-1h-1h-1h-1h-1h-1h-1h-1h-1h-1h-1h-1h-1h-1h-1h-1h-1h-1h-1h-1h-1h-1h-1h-1h-1h-1h-1h-1h-1h-1h-1 h-1h-1h-1h-1h-1h-1h-1h-1h-1h-1h-1h-1h-1h-1h-1h-1h-1h-1h-1h-1h-1h-1h-1h-1h-1h-1h-1h-1h-1h-1h-1h-1h-1h-1h-1h-1h-1h-1h-1h-1h-1h-1h-1h-1h-1h-1h-1h-1h-1h-1h-1h-1h-1h-1h-1h-1h-1h-1h-1h-1h-1h-1h-1h-1h-1h-1h-1h-1h-1h-1h-1h-1h-1h-1h-1h-1h-1h-1h-1h-1h-1h-1h-1h-1 h-1h-1h-1h-1h-1h-1h-1h-1h-1h-1h-1h-1h-1h-1h-1h-1h-1h-1h-1h-1h-1h-1h-1h-1h-1h-1h-1h-1h-1h-1h-1h-1h-1h-1h-1h-1h-1h-1h-1h-1h-1h-1h-1h-1h-1h-1h-1h-1h-1h-1h-1h-1h-1h-1h-1h-1h-1h-1h-1h-1h-1h-1h-1h-1h-1h-1h-1h-1h-1h-1h-1h-1h-1h-1h-1h-1h-1h-1h-1h-1h-1h-1h-1h-1 h-1h-1h-1h-1h-1h-1h-1h-1h-1h-1h-1h-1h-1h-1h-1h-1h-1h-1h-1h-1h-1h-1h-1h-1h-1h-1h-1h-1h-1h-1h-1h-1h-1h-1h-1h-1h-1h-1h-1h-1h-1h-1h-1h-1h-1h-1h-1h-1h-1h-1h-1h-1h-1h-1h-1h-1h-1h-1h-1h-1h-1h-1h-1h-1h-1h-1h-1h-1h-1h-1h-1h-1h-1h-1h-1h-1h-1h-1h-1h-1h-1h-1h-1h-1 h-1h-1h-1h-1h-1h-1h-1h-1h-1h-1h-1h-1h-1h-1h-1h-1h-1h-1h-1h-1h-1h-1h-1h-1h-1h-1h-1h-1h-1h-1h-1h-1h-1h-1h-1h-1h-1h-1h-1h-1h-1h-1h-1h-1h-1h-1h-1h-1h-1h-1h-1h-1h-1h-1h-1h-1h-1h-1h-1h-1h-1h-1h-1h-1h-1h-1h-1h-1h-1h-1h-1h-1h-1h-1h-1h-1h-1h-1h-1h-1h-1h-1h-1h-1 h-1h-1h-1h-1h-1h-1h-1h-1h-1h-1h-1h-1h-1h-1h-1h-1h-1h-1h-1h-1h-1h-1h-1h-1h-1h-1h-1h-1h-1h-1h-1h-1h-9q24 -320 308 -320q172 12 232 116q36 64 108 64h120q-84 -352 -476 -352q-472 0 -480 560zM284 628q608 0 600 0q-31 304 -298 304q-266 0 -302 -304zM348 1208 l100 120q24 28 58 52t78 24t78 -24q33 -23 62 -52l96 -120h-108l-112 124q-20 20 -40 0l-80 -88q-32 -36 -80 -36h-52z" />
<glyph unicode="&#xeb;" horiz-adv-x="1168" d="M96 540q5 560 492 560q511 0 480 -628h-1h-1h-1h-1h-1h-1h-1h-1h-1h-1h-1h-1h-1h-1h-1h-1h-1h-1h-1h-1h-1h-1h-1h-1h-1h-1h-1h-1h-1h-1h-1h-1h-1h-1h-1h-1h-1h-1h-1h-1h-1h-1h-1h-1h-1h-1h-1h-1h-1h-1h-1h-1h-1h-1h-1h-1h-1h-1h-1h-1h-1h-1h-1h-1h-1h-1h-1h-1h-1h-1h-1 h-1h-1h-1h-1h-1h-1h-1h-1h-1h-1h-1h-1h-1h-1h-1h-1h-1h-1h-1h-1h-1h-1h-1h-1h-1h-1h-1h-1h-1h-1h-1h-1h-1h-1h-1h-1h-1h-1h-1h-1h-1h-1h-1h-1h-1h-1h-1h-1h-1h-1h-1h-1h-1h-1h-1h-1h-1h-1h-1h-1h-1h-1h-1h-1h-1h-1h-1h-1h-1h-1h-1h-1h-1h-1h-1h-1h-1h-1h-1h-1h-1h-1h-1h-1 h-1h-1h-1h-1h-1h-1h-1h-1h-1h-1h-1h-1h-1h-1h-1h-1h-1h-1h-1h-1h-1h-1h-1h-1h-1h-1h-1h-1h-1h-1h-1h-1h-1h-1h-1h-1h-1h-1h-1h-1h-1h-1h-1h-1h-1h-1h-1h-1h-1h-1h-1h-1h-1h-1h-1h-1h-1h-1h-1h-1h-1h-1h-1h-1h-1h-1h-1h-1h-1h-1h-1h-1h-1h-1h-1h-1h-1h-1h-1h-1h-1h-1h-1h-1 h-1h-1h-1h-1h-1h-1h-1h-1h-1h-1h-1h-1h-1h-1h-1h-1h-1h-1h-1h-1h-1h-1h-1h-1h-1h-1h-1h-1h-1h-1h-1h-1h-1h-1h-1h-1h-1h-1h-1h-1h-1h-1h-1h-1h-1h-1h-1h-1h-1h-1h-1h-1h-1h-1h-1h-1h-1h-1h-1h-1h-1h-1h-1h-1h-1h-1h-1h-1h-1h-1h-1h-1h-1h-1h-1h-1h-1h-1h-1h-1h-1h-1h-1h-1 h-1h-1h-1h-1h-1h-1h-1h-1h-1h-1h-1h-1h-1h-1h-1h-1h-1h-1h-1h-1h-1h-1h-1h-1h-1h-1h-1h-1h-1h-1h-1h-1h-1h-1h-1h-1h-1h-1h-1h-1h-1h-1h-1h-1h-1h-1h-1h-1h-1h-1h-1h-1h-1h-1h-1h-1h-1h-1h-1h-1h-1h-1h-1h-1h-1h-1h-1h-1h-1h-1h-1h-1h-1h-1h-1h-1h-1h-1h-1h-1h-1h-1h-1h-1 h-1h-1h-1h-1h-1h-1h-1h-1h-1h-1h-1h-1h-1h-1h-1h-1h-1h-1h-1h-1h-1h-1h-1h-1h-1h-1h-1h-1h-1h-1h-1h-1h-1h-1h-1h-1h-1h-1h-1h-1h-1h-1h-1h-1h-1h-1h-1h-1h-1h-1h-1h-1h-1h-1h-1h-1h-1h-1h-1h-1h-1h-1h-1h-1h-1h-1h-1h-1h-1h-1h-1h-1h-1h-1h-1h-1h-1h-1h-1h-1h-1h-1h-1h-1 h-1h-1h-1h-1h-1h-1h-1h-1h-1h-1h-1h-1h-1h-1h-1h-1h-1h-1h-1h-1h-1h-1h-1h-1h-1h-1h-1h-1h-1h-1h-1h-1h-1h-1h-1h-1h-1h-1h-1h-1h-1h-1h-1h-1h-1h-1h-1h-1h-1h-1h-1h-1h-1h-1h-1h-1h-1h-1h-1h-1h-1h-1h-1h-1h-1h-1h-1h-1h-1h-1h-1h-1h-1h-1h-1h-1h-1h-1h-1h-1h-1h-1h-1h-1 h-1h-1h-1h-1h-1h-1h-1h-1h-1h-1h-1h-1h-1h-1h-1h-1h-1h-1h-1h-1h-1h-1h-1h-1h-1h-1h-1h-1h-1h-1h-1h-1h-1h-1h-1h-1h-1h-1h-1h-1h-1h-1h-1h-1h-1h-1h-1h-1h-1h-1h-1h-1h-1h-1h-1h-1h-1h-1h-1h-1h-1h-1h-1h-1h-1h-1h-1h-1h-1h-1h-1h-1h-1h-1h-1h-1h-1h-1h-1h-1h-1h-1h-1h-1 h-1h-1h-1h-1h-1h-1h-1h-1h-1h-1h-1h-1h-1h-1h-1h-1h-1h-1h-1h-1h-1h-1h-1h-1h-1h-1h-1h-1h-1h-1h-1h-1h-1h-1h-1h-1h-1h-1h-1h-1h-1h-1h-1h-1h-1h-1h-1h-1h-1h-1h-1h-1h-1h-1h-1h-1h-1h-1h-1h-1h-1h-1h-1h-1h-1h-1h-1h-1h-1h-1h-1h-1h-1h-1h-1h-1h-1h-1h-1h-1h-1h-1h-1h-1 h-1h-1h-1h-1h-1h-1h-1h-1h-1h-1h-1h-1h-1h-1h-1h-1h-1h-1h-1h-1h-1h-1h-1h-1h-1h-1h-1h-1h-1h-1h-1h-1h-9q24 -320 308 -320q172 12 232 116q36 64 108 64h120q-84 -352 -476 -352q-472 0 -480 560zM284 628q608 0 600 0q-31 304 -298 304q-266 0 -302 -304zM336 1232v160 h96q60 0 60 -60v-100h-156zM676 1232v160h100q60 0 60 -60v-100h-160z" />
<glyph unicode="&#xec;" d="M-44 1392h128q48 0 68 -36l96 -176h-88zM112 0h188v968q0 116 -120 116h-68v-1084z" />
<glyph unicode="&#xed;" d="M112 0h188v968q0 116 -120 116h-68v-1084zM132 1180l96 176q17 36 64 36h132l-204 -212h-88z" />
<glyph unicode="&#xee;" d="M-28 1212l96 120q24 28 58 52q35 24 82 24q40 0 74 -24q33 -23 62 -52l100 -120h-112l-112 124q-24 20 -36 0l-80 -88q-36 -36 -80 -36h-52zM112 0h188v968q0 116 -120 116h-68v-1084z" />
<glyph unicode="&#xef;" d="M-40 1232v160h96q60 0 60 -60v-100h-156zM112 0h188v968q0 116 -120 116h-68v-1084zM296 1232v160h100q60 0 60 -60v-100h-160z" />
<glyph unicode="&#xf0;" horiz-adv-x="1168" d="M96 512q0 561 560 520q-66 86 -140 128l-192 -124l-88 116l144 96q-51 24 -96 44q-52 28 -36 80l24 88q183 -59 256 -116l148 96q60 36 116 -24l36 -48l-172 -116q408 -300 416 -740q0 -528 -496 -528q-480 0 -480 528zM280 508q0 -368 304 -368q304 4 304 368 q0 186 -76 278t-228 90q-304 0 -304 -368z" />
<glyph unicode="&#xf1;" horiz-adv-x="1152" d="M112 0v640q-5 464 460 464t460 -464v-640h-72q-120 0 -120 116v544q0 276 -268 276q-272 0 -272 -276v-660h-188zM340 1260v52q0 128 144 80q228 -84 284 -72q22 7 40 20v-44q0 -80 -60 -84q-41 -8 -176 40q-140 44 -180 36q-28 -4 -52 -28z" />
<glyph unicode="&#xf2;" horiz-adv-x="1168" d="M96 540q0 560 488 560t488 -560t-496 -560q-480 0 -480 560zM280 540q0 -388 304 -388q304 4 304 388q0 198 -76 296t-228 96q-304 0 -304 -392zM348 1392h132q44 0 64 -36l96 -176h-88z" />
<glyph unicode="&#xf3;" horiz-adv-x="1168" d="M96 540q0 560 488 560t488 -560t-496 -560q-480 0 -480 560zM280 540q0 -388 304 -388q304 4 304 388q0 198 -76 296t-228 96q-304 0 -304 -392zM528 1180l96 176q16 36 68 36h128l-204 -212h-88z" />
<glyph unicode="&#xf4;" horiz-adv-x="1168" d="M96 540q0 560 488 560t488 -560t-496 -560q-480 0 -480 560zM280 540q0 -388 304 -388q304 4 304 388q0 198 -76 296t-228 96q-304 0 -304 -392zM348 1208l100 120q24 28 58 52t78 24t78 -24q33 -23 62 -52l96 -120h-108l-112 124q-20 20 -40 0l-80 -88q-32 -36 -80 -36 h-52z" />
<glyph unicode="&#xf5;" horiz-adv-x="1168" d="M96 540q0 560 488 560t488 -560t-496 -560q-480 0 -480 560zM280 540q0 -388 304 -388q304 4 304 388q0 198 -76 296t-228 96q-304 0 -304 -392zM356 1276v52q-4 63 52 80q54 16 192 -34q137 -50 184 -38q25 5 40 20v-44q0 -77 -64 -84q-37 -8 -172 40q-136 48 -184 36 q-13 0 -48 -28z" />
<glyph unicode="&#xf6;" horiz-adv-x="1168" d="M96 540q0 560 488 560t488 -560t-496 -560q-480 0 -480 560zM280 540q0 -388 304 -388q304 4 304 388q0 198 -76 296t-228 96q-304 0 -304 -392zM336 1232v160h96q60 0 60 -60v-100h-156zM676 1232v160h100q60 0 60 -60v-100h-160z" />
<glyph unicode="&#xf7;" horiz-adv-x="1056" d="M112 476v120h696q71 0 100 -56l36 -64h-832zM432 336q0 76 72 76q76 0 76 -76q0 -72 -76 -72q-72 0 -72 72zM432 736q0 76 72 76q76 0 76 -76q0 -72 -76 -72q-72 0 -72 72z" />
<glyph unicode="&#xf8;" horiz-adv-x="1168" d="M40 0l144 168q-89 128 -84 368q0 560 488 560q239 -7 328 -104l72 84h124l-128 -156q80 -109 92 -384q0 -560 -496 -560q-220 4 -332 112l-76 -88h-132zM280 540q-4 -135 44 -232l468 552q-64 72 -208 72q-304 0 -304 -392zM372 236q72 -89 212 -84q304 4 304 388 q0 156 -40 232z" />
<glyph unicode="&#xf9;" horiz-adv-x="1144" d="M112 436v648h188v-668q0 -112 64 -194t208 -82q140 0 204 82t64 194v548q0 120 120 120h72v-648q0 -456 -460 -456t-460 456zM340 1392h132q48 0 68 -36l96 -176h-88z" />
<glyph unicode="&#xfa;" horiz-adv-x="1144" d="M112 436v648h188v-668q0 -112 64 -194t208 -82q140 0 204 82t64 194v548q0 120 120 120h72v-648q0 -456 -460 -456t-460 456zM508 1180l96 176q16 36 64 36h132l-204 -212h-88z" />
<glyph unicode="&#xfb;" horiz-adv-x="1144" d="M112 436v648h188v-668q0 -112 64 -194t208 -82q140 0 204 82t64 194v548q0 120 120 120h72v-648q0 -456 -460 -456t-460 456zM332 1204l100 120q23 27 60 52q36 24 80 24q40 0 76 -24q37 -25 60 -52l100 -120h-108l-112 124q-24 24 -40 0l-80 -88q-36 -36 -84 -36h-52z " />
<glyph unicode="&#xfc;" horiz-adv-x="1144" d="M112 436v648h188v-668q0 -112 64 -194t208 -82q140 0 204 82t64 194v548q0 120 120 120h72v-648q0 -456 -460 -456t-460 456zM320 1232v160h100q60 0 60 -60v-100h-160zM660 1232v160h100q60 0 60 -60v-100h-160z" />
<glyph unicode="&#xfd;" horiz-adv-x="1156" d="M112 1084h196l280 -832l244 712q32 120 160 120h76l-440 -1248q-67 -139 -142 -200q-74 -60 -186 -60h-44v168h44q132 0 172 96q40 95 -4 224zM536 1180l96 176q24 36 68 36h132l-204 -212h-92z" />
<glyph unicode="&#xfe;" horiz-adv-x="956" d="M112 0v1360h80q80 0 80 -68v-268q60 52 216 60q384 16 384 -402q0 -209 -94 -311.5t-282 -98.5q-176 8 -224 60v-264q0 -68 -104 -68h-56zM264 678q0 -274 224 -274t224 274t-224 274t-224 -274z" />
<glyph unicode="&#xff;" horiz-adv-x="1156" d="M112 1084h196l280 -832l244 712q32 120 160 120h76l-440 -1248q-67 -139 -142 -200q-74 -60 -186 -60h-44v168h44q132 0 172 96q40 95 -4 224zM340 1232v160h100q60 0 60 -60v-100h-160zM680 1232v160h100q60 0 60 -60v-100h-160z" />
<glyph unicode="&#x152;" horiz-adv-x="2160" d="M72 688q0 142 32 290q32 146 132 254q96 103 224 144q126 40 264 40q250 0 428 -52q31 28 84 28h808v-156h-740v-428h560v-52q0 -48 -36 -76q-35 -28 -80 -28h-444v-496h740v-156h-928v12q-79 -20 -196 -26q-120 -6 -220 -6q-134 0 -256 38q-119 37 -212 142 q-97 109 -128 246q-32 140 -32 282zM264 688q0 -110 22 -214q23 -107 94 -190q120 -152 332 -152l404 -4v1128h-396q-101 0 -190 -34q-91 -35 -150 -110q-71 -88 -94 -202q-22 -111 -22 -222z" />
<glyph unicode="&#x153;" horiz-adv-x="1892" d="M96 508q-8 536 464 536q216 0 344 -140q24 -24 32 -44q7 11 32 44q116 140 344 140q445 0 464 -532v-68h-748q19 -304 284 -304q156 0 232 124q24 48 100 48h108q-24 -108 -96 -192q-120 -140 -344 -140q-228 0 -344 140q-20 20 -32 44q-16 -28 -32 -44 q-120 -140 -344 -140q-228 -4 -344 128t-120 400zM272 512q8 -368 288 -368t288 368t-288 368t-288 -368zM1028 592h568q-28 288 -284 288t-284 -288z" />
<glyph unicode="&#x178;" horiz-adv-x="1344" d="M112 1392h232l332 -640l296 564q40 76 136 76h136l-472 -844v-548h-188v544zM428 1564v156h100q60 0 60 -56v-100h-160zM772 1564v156h100q60 0 60 -56v-100h-160z" />
<glyph unicode="&#x2c6;" horiz-adv-x="788" d="M148 1212l100 120q24 28 58 52t78 24t78 -24q33 -23 62 -52l100 -120h-112l-112 124q-20 20 -40 0l-80 -88q-32 -36 -80 -36h-52z" />
<glyph unicode="&#x2dc;" horiz-adv-x="1012" d="M284 1264v52q0 128 144 80q228 -84 284 -72q22 7 40 20v-44q0 -80 -60 -84q-41 -8 -176 40q-140 44 -180 36q-28 -4 -52 -28z" />
<glyph unicode="&#x2000;" horiz-adv-x="868" />
<glyph unicode="&#x2001;" horiz-adv-x="1736" />
<glyph unicode="&#x2002;" horiz-adv-x="868" />
<glyph unicode="&#x2003;" horiz-adv-x="1736" />
<glyph unicode="&#x2004;" horiz-adv-x="578" />
<glyph unicode="&#x2005;" horiz-adv-x="434" />
<glyph unicode="&#x2006;" horiz-adv-x="289" />
<glyph unicode="&#x2007;" horiz-adv-x="289" />
<glyph unicode="&#x2008;" horiz-adv-x="217" />
<glyph unicode="&#x2009;" horiz-adv-x="347" />
<glyph unicode="&#x200a;" horiz-adv-x="96" />
<glyph unicode="&#x2010;" horiz-adv-x="896" d="M152 476v64q0 56 56 56h488v-120h-544z" />
<glyph unicode="&#x2011;" horiz-adv-x="896" d="M152 476v64q0 56 56 56h488v-120h-544z" />
<glyph unicode="&#x2012;" horiz-adv-x="896" d="M152 476v64q0 56 56 56h488v-120h-544z" />
<glyph unicode="&#x2013;" horiz-adv-x="1252" d="M152 476v64q0 56 56 56h888v-120h-944z" />
<glyph unicode="&#x2014;" horiz-adv-x="1892" d="M112 476v64q0 56 56 56h1608v-120h-1664z" />
<glyph unicode="&#x2018;" d="M112 996v192q0 92 52 144t136 64v-24q-4 -36 -44 -52q-56 -24 -56 -108q0 -24 28 -24h72v-120q0 -72 -72 -72h-116z" />
<glyph unicode="&#x2019;" d="M108 992v24q4 36 44 52q56 24 56 108q0 24 -28 24h-72v120q0 72 72 72h116v-192q0 -92 -52 -144t-136 -64z" />
<glyph unicode="&#x201a;" d="M112 0v120q0 72 72 72h116v-192q0 -92 -52 -144t-136 -64v24q4 36 44 52q56 24 56 108q0 24 -28 24h-72z" />
<glyph unicode="&#x201c;" horiz-adv-x="768" d="M112 996v192q0 92 52 144t136 64v-24q-4 -36 -44 -52q-56 -24 -56 -108q0 -24 28 -24h72v-120q0 -72 -72 -72h-116zM472 996v192q0 92 52 144t136 64v-24q-4 -36 -44 -52q-56 -24 -56 -108q0 -24 28 -24h72v-120q0 -72 -72 -72h-116z" />
<glyph unicode="&#x201d;" horiz-adv-x="768" d="M112 992v24q4 36 44 52q56 24 56 108q0 24 -28 24h-72v120q0 72 72 72h116v-192q0 -92 -52 -144t-136 -64zM472 992v24q4 36 44 52q56 24 56 108q0 24 -28 24h-72v120q0 72 72 72h116v-192q0 -92 -52 -144t-136 -64z" />
<glyph unicode="&#x201e;" horiz-adv-x="768" d="M112 0v120q0 72 72 72h116v-192q0 -92 -52 -144t-136 -64v24q4 36 44 52q56 24 56 108q0 24 -28 24h-72zM472 0v120q0 72 72 72h116v-192q0 -92 -52 -144t-136 -64v24q4 36 44 52q56 24 56 108q0 24 -28 24h-72z" />
<glyph unicode="&#x2022;" horiz-adv-x="720" d="M140 688q0 92 64 156t160 64q92 0 156 -64q68 -68 68 -156q0 -92 -68 -160t-160 -68q-88 0 -156 68q-64 64 -64 160z" />
<glyph unicode="&#x2026;" horiz-adv-x="1136" d="M112 0v120q0 72 68 72h120v-192h-188zM472 0v120q0 72 68 72h120v-192h-188zM832 0v120q0 72 68 72h120v-192h-188z" />
<glyph unicode="&#x202f;" horiz-adv-x="347" />
<glyph unicode="&#x2039;" horiz-adv-x="484" d="M132 548q0 44 24 78q23 33 52 62l120 100v-112l-124 -112q-20 -20 0 -40l88 -80q36 -32 36 -80v-52l-120 100q-28 24 -52 58t-24 78z" />
<glyph unicode="&#x203a;" horiz-adv-x="484" d="M128 312l120 100q28 24 52 58t24 78t-24 78q-23 33 -52 62l-120 100v-112l124 -112q20 -20 0 -40l-88 -80q-36 -32 -36 -80v-52z" />
<glyph unicode="&#x205f;" horiz-adv-x="434" />
<glyph unicode="&#x20ac;" horiz-adv-x="1252" d="M68 532v120h128v88h-128v120h140q60 532 512 540q211 4 324 -128q105 -126 124 -324h-84q-84 -5 -116 100q-72 176 -252 176q-281 0 -336 -364h352q44 0 44 -48v-72h-408q-4 -15 -4 -48t4 -40h352q40 0 44 -48v-72h-392q24 -184 96 -282q73 -99 216 -106q69 0 136 40 q60 40 108 120q24 41 48 128h168q-24 -200 -136 -324q-72 -77 -160 -108q-88 -24 -176 -24q-440 12 -488 556h-116z" />
<glyph unicode="&#x2122;" horiz-adv-x="1004" d="M124 1136v12q-5 32 32 32h268v-44h-124v-356h-56v356h-120zM460 780v368q0 32 36 32h52l100 -324l96 324h92v-400h-56v332l-108 -332h-52l-104 332v-332h-56z" />
<glyph unicode="&#x25fc;" horiz-adv-x="1180" d="M0 0v1180h1180v-1180h-1180z" />
</font>
</defs>
</svg>
