<?xml version="1.0" encoding="UTF-8" standalone="no"?>
<!-- Created with Inkscape (http://www.inkscape.org/) -->

<svg
   xmlns:dc="http://purl.org/dc/elements/1.1/"
   xmlns:cc="http://creativecommons.org/ns#"
   xmlns:rdf="http://www.w3.org/1999/02/22-rdf-syntax-ns#"
   xmlns:svg="http://www.w3.org/2000/svg"
   xmlns="http://www.w3.org/2000/svg"
   xmlns:sodipodi="http://sodipodi.sourceforge.net/DTD/sodipodi-0.dtd"
   xmlns:inkscape="http://www.inkscape.org/namespaces/inkscape"
   width="388"
   height="36"
   viewBox="0 0 387.99999 35.999998"
   id="svg2"
   version="1.1"
   inkscape:version="0.91 r13725"
   sodipodi:docname="tap.svg">
  <defs
     id="defs4" />
  <sodipodi:namedview
     id="base"
     pagecolor="#ffffff"
     bordercolor="#666666"
     borderopacity="1.0"
     inkscape:pageopacity="0.0"
     inkscape:pageshadow="2"
     inkscape:zoom="1.4"
     inkscape:cx="233.226"
     inkscape:cy="31.914419"
     inkscape:document-units="px"
     inkscape:current-layer="layer1"
     showgrid="false"
     fit-margin-top="0"
     fit-margin-left="0"
     fit-margin-right="0"
     fit-margin-bottom="0"
     inkscape:window-width="1600"
     inkscape:window-height="825"
     inkscape:window-x="0"
     inkscape:window-y="29"
     inkscape:window-maximized="1"
     units="px" />
  <metadata
     id="metadata7">
    <rdf:RDF>
      <cc:Work
         rdf:about="">
        <dc:format>image/svg+xml</dc:format>
        <dc:type
           rdf:resource="http://purl.org/dc/dcmitype/StillImage" />
        <dc:title></dc:title>
      </cc:Work>
    </rdf:RDF>
  </metadata>
  <g
     inkscape:label="Layer 1"
     inkscape:groupmode="layer"
     id="layer1"
     transform="translate(-121.40625,-444.64346)">
    <g
       style="font-style:normal;font-weight:normal;font-size:40px;line-height:125%;font-family:sans-serif;letter-spacing:0px;word-spacing:0px;fill:#000000;fill-opacity:1;stroke:none;stroke-width:1px;stroke-linecap:butt;stroke-linejoin:miter;stroke-opacity:1"
       id="text3344">
      <path
         d="m 129.45312,472.36221 5.54688,0 0,-22.34375 8.04687,0 0,-4.84375 -18.82812,0 c -0.78125,0 -1.48437,0.3125 -2.03125,0.85938 -0.54687,0.625 -0.78125,1.25 -0.78125,2.03125 l 0,1.95312 8.04687,0 0,22.34375 z"
         style="font-style:normal;font-variant:normal;font-weight:normal;font-stretch:normal;font-family:'Harabara Mais Bold';-inkscape-font-specification:'Harabara Mais Bold, '"
         id="path3421"
         inkscape:connector-curvature="0" />
      <path
         d="m 155.46875,461.73721 0,1.95313 c 0,1.5625 -0.46875,2.73437 -1.25,3.51562 -0.9375,0.85938 -2.10938,1.25 -3.51563,1.25 -1.71875,0 -2.57812,-0.78125 -2.65625,-2.5 0,-1.5625 1.01563,-2.5 3.20313,-2.96875 1.5625,-0.3125 2.96875,-0.70312 4.21875,-1.25 z m 1.25,9.6875 c 2.57812,-1.40625 3.90625,-3.90625 3.90625,-7.5 l 0,-7.1875 c -0.15625,-3.90625 -3.125,-5.85937 -8.90625,-5.85937 -4.92188,0 -7.65625,1.95312 -8.28125,5.85937 l 5.3125,0 c 0.23437,-0.9375 1.32812,-1.48437 3.20312,-1.48437 2.1875,0 3.28125,0.625 3.4375,1.79687 0,1.17188 -1.17187,1.875 -3.4375,2.10938 -3.28125,0.3125 -5.54687,1.01562 -6.95312,2.10937 -1.40625,1.09375 -2.1875,2.73438 -2.1875,4.84375 0,2.8125 1.09375,4.6875 3.28125,5.78125 1.40625,0.78125 3.20312,1.01563 5.3125,0.85938 2.10937,-0.15625 3.90625,-0.54688 5.3125,-1.32813 z"
         style="font-style:normal;font-variant:normal;font-weight:normal;font-stretch:normal;font-family:'Harabara Mais Bold';-inkscape-font-specification:'Harabara Mais Bold, '"
         id="path3423"
         inkscape:connector-curvature="0" />
      <path
         d="m 168.51562,477.98721 c 0,1.79688 -0.9375,2.65625 -2.65625,2.65625 l -2.65625,0 0,-20.23437 c 0.23438,-6.25 3.51563,-9.45313 9.92188,-9.45313 6.5625,0 9.84375,3.59375 9.84375,10.70313 0,7.1875 -2.8125,10.9375 -8.4375,11.09375 -2.65625,0 -4.6875,-1.09375 -6.01563,-3.28125 l 0,8.51562 z M 177.5,461.89346 c 0,-4.21875 -1.5625,-6.40625 -4.53125,-6.40625 -3.04688,0 -4.53125,2.1875 -4.45313,6.40625 0.15625,4.0625 1.64063,6.09375 4.53125,6.09375 2.8125,0 4.29688,-2.03125 4.45313,-6.09375 z"
         style="font-style:normal;font-variant:normal;font-weight:normal;font-stretch:normal;font-family:'Harabara Mais Bold';-inkscape-font-specification:'Harabara Mais Bold, '"
         id="path3425"
         inkscape:connector-curvature="0" />
      <path
         d="m 209.53125,458.76846 c 0,-2.8125 0.625,-5.07812 1.95312,-6.79687 1.25,-1.5625 3.125,-2.42188 5.46875,-2.42188 2.34375,0 4.14063,0.85938 5.54688,2.42188 1.25,1.64062 1.95312,3.90625 1.95312,6.79687 0,3.04688 -0.70312,5.3125 -1.95312,6.875 -1.40625,1.64063 -3.28125,2.42188 -5.54688,2.42188 -2.34375,0 -4.14062,-0.78125 -5.46875,-2.42188 -1.32812,-1.64062 -1.95312,-3.90625 -1.95312,-6.875 z m -5.54688,0 c 0,4.375 1.17188,7.73438 3.51563,10.23438 2.1875,2.5 5.39062,3.75 9.45312,3.75 4.0625,0 7.1875,-1.25 9.53125,-3.75 2.34375,-2.5 3.51563,-5.85938 3.51563,-10.23438 0,-4.21875 -1.17188,-7.57812 -3.51563,-10.23437 -2.42187,-2.5 -5.625,-3.82813 -9.53125,-3.82813 -3.90625,0 -7.10937,1.32813 -9.45312,3.82813 -2.34375,2.5 -3.51563,5.9375 -3.51563,10.23437 z"
         style="font-style:normal;font-variant:normal;font-weight:normal;font-stretch:normal;font-family:'Harabara Mais Bold';-inkscape-font-specification:'Harabara Mais Bold, '"
         id="path3427"
         inkscape:connector-curvature="0" />
      <path
         d="m 250.78125,472.36221 0,-12.42187 c 0,-6.01563 -2.96875,-9.0625 -8.98438,-9.0625 -6.09375,0 -9.0625,3.04687 -9.0625,9.0625 l 0,12.42187 5.39063,0 0,-13.51562 c 0,-2.1875 1.25,-3.28125 3.59375,-3.28125 2.34375,0 3.51562,1.09375 3.67187,3.28125 l 0,10.85937 c 0,1.71875 0.85938,2.57813 2.65625,2.65625 l 2.73438,0 z"
         style="font-style:normal;font-variant:normal;font-weight:normal;font-stretch:normal;font-family:'Harabara Mais Bold';-inkscape-font-specification:'Harabara Mais Bold, '"
         id="path3429"
         inkscape:connector-curvature="0" />
      <path
         d="m 280,472.36221 5.54687,0 0,-22.34375 8.04688,0 0,-4.84375 -18.82813,0 c -0.78125,0 -1.48437,0.3125 -2.03125,0.85938 -0.54687,0.625 -0.78125,1.25 -0.78125,2.03125 l 0,1.95312 8.04688,0 0,22.34375 z"
         style="font-style:normal;font-variant:normal;font-weight:normal;font-stretch:normal;font-family:'Harabara Mais Bold';-inkscape-font-specification:'Harabara Mais Bold, '"
         id="path3431"
         inkscape:connector-curvature="0" />
      <path
         d="m 309.29687,457.20596 c 0.70313,0.85938 1.09375,2.26563 1.09375,4.29688 l 0,10.85937 5.3125,0 0,-12.26562 c 0.15625,-4.53125 -1.25,-7.42188 -4.21875,-8.51563 -3.98437,-1.40625 -7.34375,-0.54687 -10,2.57813 l 0,-6.32813 c 0,-1.71875 -0.9375,-2.65625 -2.65625,-2.65625 l -2.65625,0 0,27.1875 5.3125,0 0,-10.85937 c 0,-1.71875 0.39063,-3.20313 1.17188,-4.29688 0.78125,-1.01562 1.875,-1.5625 3.35937,-1.5625 1.32813,0 2.42188,0.54688 3.28125,1.5625 z"
         style="font-style:normal;font-variant:normal;font-weight:normal;font-stretch:normal;font-family:'Harabara Mais Bold';-inkscape-font-specification:'Harabara Mais Bold, '"
         id="path3433"
         inkscape:connector-curvature="0" />
      <path
         d="m 333.20312,465.87784 c -0.78125,0 -1.32812,0.3125 -1.79687,0.78125 -1.09375,1.01562 -2.1875,1.48437 -3.4375,1.48437 -2.65625,0 -4.0625,-1.5625 -4.21875,-4.84375 l 13.67187,0 c 0.39063,-8.28125 -2.73437,-12.42187 -9.45312,-12.42187 -6.48438,0.0781 -9.6875,3.67187 -9.6875,10.85937 0,7.1875 3.20312,10.9375 9.60937,11.09375 2.34375,0 4.375,-0.54687 6.09375,-1.71875 1.40625,-1.09375 2.5,-2.8125 3.125,-5.23437 l -3.90625,0 z m -9.375,-6.40625 c 0.39063,-2.8125 1.71875,-4.21875 4.0625,-4.21875 2.26563,0 3.59375,1.40625 3.90625,4.21875 l -7.96875,0 z"
         style="font-style:normal;font-variant:normal;font-weight:normal;font-stretch:normal;font-family:'Harabara Mais Bold';-inkscape-font-specification:'Harabara Mais Bold, '"
         id="path3435"
         inkscape:connector-curvature="0" />
      <path
         d="m 358.67187,472.36221 5.625,0 0,-12.03125 11.17188,0 0,12.03125 5.625,0 0,-27.1875 -5.625,0 0,10.15625 -11.17188,0 0,-10.15625 -2.8125,0 c -0.78125,0 -1.48437,0.3125 -2.03125,0.85938 -0.54687,0.625 -0.78125,1.25 -0.78125,2.03125 l 0,24.29687 z"
         style="font-style:normal;font-variant:normal;font-weight:normal;font-stretch:normal;font-family:'Harabara Mais Bold';-inkscape-font-specification:'Harabara Mais Bold, '"
         id="path3437"
         inkscape:connector-curvature="0" />
      <path
         d="m 393.125,450.87784 c -6.40625,0 -9.60938,3.67187 -9.60938,11.01562 0,7.34375 3.20313,10.9375 9.60938,10.9375 6.40625,0 9.60937,-3.59375 9.60937,-10.9375 0,-7.34375 -3.20312,-11.01562 -9.60937,-11.01562 z m 0,4.6875 c 2.65625,0 4.0625,2.10937 4.0625,6.17187 -0.0781,4.21875 -1.48438,6.32813 -4.14063,6.32813 -2.73437,0 -4.14062,-2.03125 -4.14062,-6.17188 0,-4.21875 1.40625,-6.32812 4.21875,-6.32812 z"
         style="font-style:normal;font-variant:normal;font-weight:normal;font-stretch:normal;font-family:'Harabara Mais Bold';-inkscape-font-specification:'Harabara Mais Bold, '"
         id="path3439"
         inkscape:connector-curvature="0" />
      <path
         d="m 413.82812,472.12784 0,-4.0625 -1.64062,0 c -1.09375,0 -1.5625,-0.39063 -1.5625,-1.32813 l 0,-11.71875 0.54687,0 c 0.70313,0 1.32813,-0.23437 1.875,-0.70312 0.46875,-0.46875 0.78125,-1.17188 0.78125,-1.95313 l 0,-1.17187 -3.20312,0 0,-3.35938 c 0,-0.70312 -0.3125,-1.32812 -0.78125,-1.875 -0.54688,-0.46875 -1.17188,-0.78125 -1.79688,-0.78125 l -2.73437,0 0,23.125 c -0.0781,2.34375 0.85937,3.67188 2.89062,3.82813 2.03125,0.15625 3.90625,0.15625 5.625,0 z"
         style="font-style:normal;font-variant:normal;font-weight:normal;font-stretch:normal;font-family:'Harabara Mais Bold';-inkscape-font-specification:'Harabara Mais Bold, '"
         id="path3441"
         inkscape:connector-curvature="0" />
      <path
         d="m 415.46875,465.40909 c 0,2.5 0.78125,4.29687 2.42187,5.46875 1.40625,1.25 3.67188,1.875 6.64063,1.875 3.125,0 5.54687,-0.54688 7.1875,-1.79688 1.64062,-1.17187 2.5,-2.96875 2.5,-5.3125 0,-1.40625 -0.54688,-2.65625 -1.48438,-3.75 -1.17187,-1.09375 -3.51562,-1.95312 -7.10937,-2.73437 -2.8125,-0.46875 -4.14063,-1.32813 -4.14063,-2.42188 0,-1.09375 1.01563,-1.64062 3.125,-1.64062 1.71875,0 2.8125,0.46875 3.20313,1.40625 0.3125,0.85937 1.09375,1.32812 2.34375,1.32812 l 3.35937,0 c -0.15625,-2.1875 -0.9375,-3.90625 -2.5,-5.15625 -1.64062,-1.17187 -3.82812,-1.79687 -6.48437,-1.79687 -2.65625,0.0781 -4.76563,0.70312 -6.17188,1.79687 -1.5625,1.25 -2.26562,2.96875 -2.26562,5 0,3.35938 2.42187,5.46875 7.10937,6.25 3.59375,0.625 5.46875,1.48438 5.46875,2.57813 0,1.40625 -1.17187,2.03125 -3.35937,2.03125 -1.48438,0 -2.57813,-0.23438 -3.20313,-0.78125 -0.78125,-0.46875 -1.17187,-1.25 -1.17187,-2.34375 l -5.46875,0 z"
         style="font-style:normal;font-variant:normal;font-weight:normal;font-stretch:normal;font-family:'Harabara Mais Bold';-inkscape-font-specification:'Harabara Mais Bold, '"
         id="path3443"
         inkscape:connector-curvature="0" />
      <path
         d="m 441.875,477.98721 c 0,1.79688 -0.9375,2.65625 -2.65625,2.65625 l -2.65625,0 0,-20.23437 c 0.23437,-6.25 3.51562,-9.45313 9.92187,-9.45313 6.5625,0 9.84375,3.59375 9.84375,10.70313 0,7.1875 -2.8125,10.9375 -8.4375,11.09375 -2.65625,0 -4.6875,-1.09375 -6.01562,-3.28125 l 0,8.51562 z m 8.98437,-16.09375 c 0,-4.21875 -1.5625,-6.40625 -4.53125,-6.40625 -3.04687,0 -4.53125,2.1875 -4.45312,6.40625 0.15625,4.0625 1.64062,6.09375 4.53125,6.09375 2.8125,0 4.29687,-2.03125 4.45312,-6.09375 z"
         style="font-style:normal;font-variant:normal;font-weight:normal;font-stretch:normal;font-family:'Harabara Mais Bold';-inkscape-font-specification:'Harabara Mais Bold, '"
         id="path3445"
         inkscape:connector-curvature="0" />
      <path
         d="m 468.28125,450.87784 c -6.40625,0 -9.60938,3.67187 -9.60938,11.01562 0,7.34375 3.20313,10.9375 9.60938,10.9375 6.40625,0 9.60937,-3.59375 9.60937,-10.9375 0,-7.34375 -3.20312,-11.01562 -9.60937,-11.01562 z m 0,4.6875 c 2.65625,0 4.0625,2.10937 4.0625,6.17187 -0.0781,4.21875 -1.48438,6.32813 -4.14063,6.32813 -2.73437,0 -4.14062,-2.03125 -4.14062,-6.17188 0,-4.21875 1.40625,-6.32812 4.21875,-6.32812 z"
         style="font-style:normal;font-variant:normal;font-weight:normal;font-stretch:normal;font-family:'Harabara Mais Bold';-inkscape-font-specification:'Harabara Mais Bold, '"
         id="path3447"
         inkscape:connector-curvature="0" />
      <path
         d="m 488.98437,472.12784 0,-4.0625 -1.64062,0 c -1.09375,0 -1.5625,-0.39063 -1.5625,-1.32813 l 0,-11.71875 0.54687,0 c 0.70313,0 1.32813,-0.23437 1.875,-0.70312 0.46875,-0.46875 0.78125,-1.17188 0.78125,-1.95313 l 0,-1.17187 -3.20312,0 0,-3.35938 c 0,-0.70312 -0.3125,-1.32812 -0.78125,-1.875 -0.54688,-0.46875 -1.17188,-0.78125 -1.79688,-0.78125 l -2.73437,0 0,23.125 c -0.0781,2.34375 0.85937,3.67188 2.89062,3.82813 2.03125,0.15625 3.90625,0.15625 5.625,0 z"
         style="font-style:normal;font-variant:normal;font-weight:normal;font-stretch:normal;font-family:'Harabara Mais Bold';-inkscape-font-specification:'Harabara Mais Bold, '"
         id="path3449"
         inkscape:connector-curvature="0" />
      <path
         d="m 490.625,465.40909 c 0,2.5 0.78125,4.29687 2.42187,5.46875 1.40625,1.25 3.67188,1.875 6.64063,1.875 3.125,0 5.54687,-0.54688 7.1875,-1.79688 1.64062,-1.17187 2.5,-2.96875 2.5,-5.3125 0,-1.40625 -0.54688,-2.65625 -1.48438,-3.75 -1.17187,-1.09375 -3.51562,-1.95312 -7.10937,-2.73437 -2.8125,-0.46875 -4.14063,-1.32813 -4.14063,-2.42188 0,-1.09375 1.01563,-1.64062 3.125,-1.64062 1.71875,0 2.8125,0.46875 3.20313,1.40625 0.3125,0.85937 1.09375,1.32812 2.34375,1.32812 l 3.35937,0 c -0.15625,-2.1875 -0.9375,-3.90625 -2.5,-5.15625 -1.64062,-1.17187 -3.82812,-1.79687 -6.48437,-1.79687 -2.65625,0.0781 -4.76563,0.70312 -6.17188,1.79687 -1.5625,1.25 -2.26562,2.96875 -2.26562,5 0,3.35938 2.42187,5.46875 7.10937,6.25 3.59375,0.625 5.46875,1.48438 5.46875,2.57813 0,1.40625 -1.17187,2.03125 -3.35937,2.03125 -1.48438,0 -2.57813,-0.23438 -3.20313,-0.78125 -0.78125,-0.46875 -1.17187,-1.25 -1.17187,-2.34375 l -5.46875,0 z"
         style="font-style:normal;font-variant:normal;font-weight:normal;font-stretch:normal;font-family:'Harabara Mais Bold';-inkscape-font-specification:'Harabara Mais Bold, '"
         id="path3451"
         inkscape:connector-curvature="0" />
    </g>
  </g>
</svg>
